<svg viewBox="0 0 240 42" fill="none" xmlns="http://www.w3.org/2000/svg">
<g clip-path="url(#clip0_15791_5497)">
<path d="M40.964 29.0427H40.4181C38.0206 29.0427 36.0683 27.0903 36.0683 24.6929V12.2665H38.258C39.4627 12.2665 40.4418 11.2933 40.4418 10.0827C40.4418 8.8721 39.4627 7.89888 38.258 7.89888H36.0683V5.71506C36.0683 4.50447 35.0891 3.53125 33.8844 3.53125C32.6798 3.53125 31.7006 4.51041 31.7006 5.71506V7.89888H29.5168C28.3122 7.89888 27.333 8.87803 27.333 10.0827C27.333 11.2874 28.3122 12.2665 29.5168 12.2665H31.7006V24.6929C31.7006 29.5056 35.6113 33.4163 40.4181 33.4163H40.964C42.1687 33.4163 43.1479 32.4371 43.1479 31.2325C43.1479 30.0278 42.1687 29.0486 40.964 29.0486V29.0427Z" fill="#0099DD"/>
<path d="M24.568 29.0423H24.022C21.6246 29.0423 19.6722 27.09 19.6722 24.6925V16.61C19.6722 11.8033 15.7437 7.89258 10.9369 7.89258H10.391C9.18634 7.89258 8.20718 8.87173 8.20718 10.0764C8.20718 11.2811 9.18634 12.2602 10.391 12.2602H10.9369C12.8834 12.2602 14.5391 13.5539 15.0909 15.3223H8.71753C3.91076 15.3223 -0.00585938 19.233 -0.00585938 24.0397C-0.00585938 28.8465 3.91076 32.7572 8.71753 32.7572H10.9488C13.3997 32.7572 15.6132 31.7424 17.1976 30.1105C18.7939 32.1163 21.2567 33.404 24.0161 33.404H24.562C25.7667 33.404 26.7459 32.4249 26.7459 31.2202C26.7459 30.0156 25.7667 29.0364 24.562 29.0364L24.568 29.0423ZM10.9548 28.3955H8.72346C6.32601 28.3955 4.37364 26.4431 4.37364 24.0457C4.37364 21.6482 6.32601 19.6959 8.72346 19.6959H15.3046V24.0457C15.3046 26.4431 13.3581 28.3955 10.9548 28.3955Z" fill="#0099DD"/>
<path d="M56.8151 7.23438C52.0083 7.23438 48.0977 11.1451 48.0977 15.9578V24.6752C48.0977 29.4879 52.0083 33.3986 56.8151 33.3986C61.6219 33.3986 65.5326 29.4879 65.5326 24.6752V15.9578C65.5326 11.1451 61.6219 7.23438 56.8151 7.23438ZM61.1649 24.6752C61.1649 27.0727 59.2126 29.025 56.8151 29.025C54.4177 29.025 52.4653 27.0727 52.4653 24.6752V15.9578C52.4653 13.5603 54.4177 11.6079 56.8151 11.6079C59.2126 11.6079 61.1649 13.5603 61.1649 15.9578V24.6752Z" fill="#0099DD"/>
<path d="M94.4324 29.0426H93.8864C91.489 29.0426 89.5366 27.0902 89.5366 24.6928V15.9753C89.5366 11.1686 85.62 7.25195 80.8132 7.25195C76.0065 7.25195 72.0898 11.1686 72.0898 15.9753V31.2146C72.0898 32.4192 73.069 33.3984 74.2737 33.3984C75.4783 33.3984 76.4575 32.4192 76.4575 31.2146V15.9753C76.4575 13.5779 78.4098 11.6255 80.8073 11.6255C83.2047 11.6255 85.1571 13.572 85.1571 15.9753V24.6928C85.1571 29.5055 89.0678 33.4162 93.8746 33.4162H94.4205C95.6252 33.4162 96.6043 32.437 96.6043 31.2324C96.6043 30.0277 95.6252 29.0486 94.4205 29.0486L94.4324 29.0426Z" fill="#0099DD"/>
<path d="M114.579 29.043C113.375 29.043 112.396 30.0221 112.396 31.2268C112.396 32.4314 113.375 33.4106 114.579 33.4106C115.784 33.4106 116.763 32.4314 116.763 31.2268C116.763 30.0221 115.784 29.043 114.579 29.043Z" fill="#F00088"/>
<path d="M108.093 7.25195C103.286 7.25195 99.3691 11.1686 99.3691 15.9753V24.6928C99.3691 29.5055 103.28 33.4162 108.093 33.4162H108.638C109.843 33.4162 110.822 32.437 110.822 31.2324C110.822 30.0277 109.843 29.0486 108.638 29.0486H108.093C105.695 29.0486 103.743 27.0962 103.743 24.6987V21.8918H114.626C115.831 21.8918 116.81 20.9127 116.81 19.708V15.9813C116.81 11.1745 112.899 7.25789 108.093 7.25789V7.25195ZM112.442 17.5183H103.743V15.9753C103.743 13.5779 105.695 11.6255 108.093 11.6255C110.49 11.6255 112.442 13.572 112.442 15.9753V17.5183Z" fill="#0099DD"/>
<path d="M134.375 33.577C132.749 33.577 131.183 33.2269 129.687 32.5267C128.192 31.8264 126.928 30.8532 125.907 29.607L128.346 27.5241C129.224 28.4795 130.198 29.2213 131.266 29.7494C132.334 30.2776 133.39 30.5387 134.423 30.5387C135.984 30.5387 137.194 30.2182 138.049 29.5833C138.903 28.9483 139.331 28.0522 139.331 26.901C139.331 26.1829 139.135 25.5302 138.743 24.9367C138.351 24.3492 137.716 23.7914 136.838 23.2751C135.96 22.7589 134.803 22.2248 133.367 21.6847C130.779 20.7293 128.922 19.679 127.788 18.5396C126.655 17.4002 126.091 15.9819 126.091 14.2906C126.091 12.4095 126.821 10.8844 128.281 9.72124C129.741 8.55812 131.646 7.97656 133.99 7.97656C135.539 7.97656 136.987 8.27328 138.345 8.87264C139.698 9.472 140.856 10.3265 141.817 11.4481L139.473 13.4124C137.906 11.816 136.067 11.0208 133.942 11.0208C132.554 11.0208 131.456 11.3116 130.649 11.8932C129.842 12.4747 129.438 13.2759 129.438 14.2966C129.438 15.2401 129.854 16.0472 130.684 16.7237C131.515 17.4002 133.028 18.1479 135.23 18.9609C137.016 19.6315 138.452 20.3377 139.538 21.0794C140.624 21.8212 141.408 22.6639 141.894 23.6015C142.381 24.5451 142.624 25.6251 142.624 26.8535C142.624 28.9424 141.888 30.5862 140.422 31.7849C138.957 32.9836 136.939 33.577 134.37 33.577H134.375Z" fill="#0099DD"/>
<path d="M148.138 33.0005V0H151.491V11.7024C152.179 10.5037 153.093 9.58386 154.244 8.93702C155.395 8.29019 156.683 7.96974 158.119 7.96974C160.178 7.96974 161.822 8.40294 163.062 9.27528C164.297 10.1476 165.193 11.376 165.745 12.9723C166.297 14.5687 166.57 16.4558 166.57 18.6455V33.0065H163.217V18.0521C163.217 15.9454 162.772 14.2541 161.887 12.9783C161.003 11.7024 159.579 11.0615 157.615 11.0615C155.65 11.0615 154.078 11.6787 153.045 12.9071C152.007 14.1355 151.491 15.9454 151.491 18.3369V33.0065H148.138V33.0005Z" fill="#0099DD"/>
<path d="M182.728 33.5771C179.506 33.5771 176.96 32.4318 175.097 30.1412C173.228 27.8505 172.296 24.735 172.296 20.7947C172.296 18.1599 172.717 15.887 173.566 13.9762C174.409 12.0594 175.613 10.5818 177.18 9.53735C178.741 8.49292 180.592 7.9707 182.734 7.9707C184.877 7.9707 186.746 8.48699 188.313 9.51362C189.873 10.5402 191.078 12.0119 191.915 13.9287C192.751 15.8455 193.173 18.1183 193.173 20.7472C193.173 23.3761 192.751 25.6549 191.903 27.5776C191.054 29.5003 189.849 30.9779 188.289 32.0164C186.722 33.0549 184.877 33.5712 182.734 33.5712L182.728 33.5771ZM182.728 30.4201C184.93 30.4201 186.651 29.5655 187.885 27.8624C189.12 26.1533 189.743 23.7856 189.743 20.7531C189.743 17.7207 189.126 15.3351 187.885 13.6439C186.651 11.9526 184.93 11.104 182.728 11.104C180.527 11.104 178.77 11.9467 177.548 13.6261C176.325 15.3114 175.72 17.697 175.72 20.7947C175.72 23.8924 176.331 26.2067 177.566 27.8921C178.794 29.5774 180.515 30.4141 182.734 30.4141L182.728 30.4201Z" fill="#0099DD"/>
<path d="M198.857 41.1136V8.54633H202.21V11.104C203.949 9.01514 206.18 7.9707 208.91 7.9707C210.922 7.9707 212.661 8.48698 214.126 9.52548C215.592 10.564 216.726 12.0357 217.527 13.9525C218.322 15.8692 218.725 18.1302 218.725 20.7472C218.725 23.3642 218.322 25.6549 217.515 27.5776C216.708 29.5003 215.562 30.9779 214.067 32.0164C212.577 33.0549 210.809 33.5712 208.768 33.5712C207.397 33.5712 206.157 33.2804 205.059 32.6988C203.961 32.1173 203.005 31.2568 202.21 30.1234V41.1077H198.857V41.1136ZM208.429 30.4141C210.631 30.4141 212.322 29.5774 213.503 27.9039C214.684 26.2305 215.272 23.8449 215.272 20.7472C215.272 17.6495 214.654 15.4301 213.414 13.6973C212.18 11.9645 210.512 11.0981 208.423 11.0981C207.118 11.0981 205.919 11.4245 204.833 12.0772C203.747 12.73 202.869 13.6557 202.198 14.8545V26.4619C203.047 27.7556 203.991 28.7347 205.047 29.4053C206.097 30.0759 207.225 30.4082 208.423 30.4082L208.429 30.4141Z" fill="#0099DD"/>
<path d="M231.74 33.577C230.114 33.577 228.547 33.2269 227.052 32.5267C225.556 31.8264 224.292 30.8532 223.271 29.607L225.71 27.5241C226.589 28.4795 227.562 29.2213 228.63 29.7494C229.698 30.2776 230.755 30.5387 231.787 30.5387C233.348 30.5387 234.558 30.2182 235.413 29.5833C236.268 28.9483 236.695 28.0522 236.695 26.901C236.695 26.1829 236.499 25.5302 236.107 24.9367C235.716 24.3492 235.081 23.7914 234.202 23.2751C233.324 22.7589 232.167 22.2248 230.731 21.6847C228.144 20.7293 226.286 19.679 225.153 18.5396C224.019 17.4002 223.455 15.9819 223.455 14.2906C223.455 12.4095 224.185 10.8844 225.645 9.72124C227.105 8.55812 229.01 7.97656 231.354 7.97656C232.903 7.97656 234.351 8.27328 235.71 8.87264C237.063 9.472 238.22 10.3265 239.181 11.4481L236.837 13.4124C235.271 11.816 233.431 11.0208 231.307 11.0208C229.918 11.0208 228.82 11.3116 228.013 11.8932C227.206 12.4747 226.802 13.2759 226.802 14.2966C226.802 15.2401 227.218 16.0472 228.049 16.7237C228.879 17.4002 230.393 18.1479 232.594 18.9609C234.38 19.6315 235.817 20.3377 236.903 21.0794C237.988 21.8212 238.772 22.6639 239.258 23.6015C239.745 24.5451 239.988 25.6251 239.988 26.8535C239.988 28.9424 239.253 30.5862 237.787 31.7849C236.321 32.9836 234.303 33.577 231.734 33.577H231.74Z" fill="#0099DD"/>
</g>
<defs>
<clipPath id="clip0_15791_5497">
<rect width="240" height="41.1127" fill="white"/>
</clipPath>
</defs>
</svg>
