<svg viewBox="0 0 60 61" fill="none" xmlns="http://www.w3.org/2000/svg">
<g clip-path="url(#clip0_6528_383426)">
<path d="M41.1424 10.6341C34.4127 9.05089 26.6182 10.58 19.7538 14.8281C12.8894 19.0762 8.04603 25.373 6.46283 32.1021C5.35224 36.818 5.97157 41.2567 8.25167 44.9403C13.9255 54.1052 28.3174 55.511 40.333 48.0724C52.3487 40.6338 57.509 27.1264 51.8322 17.9608C49.5521 14.2767 45.8547 11.7435 41.14 10.6341H41.1424ZM39.1233 46.1176C28.1857 52.8887 15.2134 51.8172 10.2065 43.7299C8.25408 40.5767 7.73336 36.738 8.70325 32.63C10.1259 26.5798 14.7108 20.6558 20.9666 16.7835C27.2225 12.9112 34.5685 11.4494 40.6187 12.8751C44.7267 13.8414 47.9298 16.0187 49.8822 19.1725C54.8885 27.261 50.0626 39.3482 39.1257 46.1194L39.1233 46.1176Z" fill="#004097"/>
<path d="M12.4805 40.8477C17.2373 40.8477 40.0251 32.325 39.5338 25.8106C39.0672 19.6377 25.8989 25.8803 21.664 27.9752L22.1889 22.9286C25.0751 20.6196 43.5204 12.6176 46.5533 22.0982C50.2813 33.7476 22.4162 41.6095 12.4811 40.8447L12.4805 40.8477Z" fill="#004097"/>
<path d="M21.1952 30.5389C22.0872 30.5389 22.9591 30.2744 23.7007 29.7789C24.4423 29.2834 25.0203 28.5791 25.3617 27.755C25.703 26.931 25.7923 26.0242 25.6183 25.1494C25.4443 24.2746 25.0148 23.4711 24.3841 22.8404C23.7534 22.2097 22.9498 21.7802 22.075 21.6062C21.2002 21.4322 20.2935 21.5215 19.4695 21.8628C18.6454 22.2041 17.9411 22.7822 17.4456 23.5238C16.95 24.2654 16.6855 25.1373 16.6855 26.0292C16.6855 27.2253 17.1607 28.3723 18.0064 29.2181C18.8521 30.0638 19.9992 30.5389 21.1952 30.5389Z" fill="#8B92C7"/>
<path d="M24.5785 48.3613C24.5839 44.1138 24.5701 36.2519 24.5701 36.1292C24.5583 35.2507 24.201 34.4122 23.5756 33.7951C22.9502 33.178 22.107 32.832 21.2284 32.832C20.3498 32.832 19.5066 33.178 18.8812 33.7951C18.2558 34.4122 17.8985 35.2507 17.8867 36.1292V47.3842C20.0477 48.0794 22.3095 48.4094 24.5791 48.3607L24.5785 48.3613Z" fill="#8B92C7"/>
<path d="M0.382422 28.1042C0.668036 28.2545 0.722754 28.281 0.953049 28.4049L1.39259 27.2546L2.2344 27.5757L1.75337 28.8336C2.87463 29.439 3.9452 30.134 4.95465 30.9116L4.35336 31.6332C3.4577 30.8668 2.48526 30.195 1.45152 29.6285L1.20018 30.2869L0.35837 29.967L0.646991 29.2112C0.377612 29.0765 0.290424 29.0404 0 28.9123L0.379416 28.1048L0.382422 28.1042ZM4.01844 28.3213C4.09588 28.4933 4.22886 28.6343 4.39605 28.7217C4.6967 28.8354 4.85003 28.5468 5.04485 28.0345C5.18657 27.683 5.30527 27.3226 5.40021 26.9557L6.28231 27.2816C6.23721 27.4157 6.19452 27.563 6.04179 27.9629C5.90452 28.4888 5.63763 28.9719 5.26552 29.3681C5.13071 29.4839 4.96707 29.561 4.79197 29.5913C4.61687 29.6216 4.43684 29.6039 4.27098 29.5401C3.89761 29.3805 3.59073 29.097 3.40211 28.7374L4.01844 28.3219V28.3213ZM3.63241 26.343C3.56446 26.5036 3.49592 26.6509 3.40813 26.8794C3.20273 27.3414 3.1031 27.8435 3.1165 28.3489L2.28491 28.3099C2.2384 27.5185 2.40011 26.7289 2.75392 26.0195L3.63121 26.3436L3.63241 26.343Z" fill="#8B92C7"/>
<path d="M2.7186 23.6505C3.19602 24.0502 3.70073 24.4161 4.22905 24.7455C4.62909 25.0004 5.05725 25.2082 5.50499 25.3648C5.67155 25.4147 5.96378 25.4899 6.07381 25.3095C6.15619 25.1748 6.07742 25.0131 5.99083 24.8652C5.83135 24.6121 5.65029 24.3733 5.44967 24.1514L6.21211 23.7906C6.58972 24.2146 7.42311 25.2145 6.99018 25.93C6.84905 26.1185 6.65214 26.2577 6.42741 26.3278C6.20268 26.398 5.96156 26.3956 5.73829 26.3209C5.01688 26.1338 4.32913 25.8352 3.69991 25.4358C3.17318 25.1177 2.57549 24.6854 2.17383 24.3919L2.7186 23.6554V23.6505ZM7.81456 23.41C7.71414 23.3421 7.61312 23.2753 7.45378 23.1791C6.87627 22.8102 6.24589 22.5314 5.58436 22.3524C5.12616 22.2172 4.6411 22.2011 4.17493 22.3055L4.08955 21.442C4.98813 21.2483 5.92592 21.3678 6.74726 21.7805C7.27097 22.0028 7.77554 22.2676 8.2559 22.5724L7.81756 23.41H7.81456Z" fill="#8B92C7"/>
<path d="M7.54361 16.3594C7.72039 16.4875 7.87673 16.5999 8.41429 17.0485L8.90915 16.4357L9.59042 17.0124L9.09555 17.6245C9.99749 18.4332 10.5254 18.9215 9.90429 19.6545C9.73488 19.8509 9.54454 20.0284 9.33667 20.1836L8.67525 19.6352C8.84417 19.5041 9.00296 19.3603 9.15027 19.2053C9.33066 18.9942 9.15869 18.8211 8.55379 18.2949L7.58089 19.4975L8.58626 20.3646C9.28977 20.9599 9.33547 20.999 10.1087 20.0886C10.4627 19.6873 10.793 19.2657 11.0979 18.8259L11.8152 19.435C11.6306 19.6978 11.2909 20.1 11.0161 20.4229C10.3607 21.1968 9.88264 21.7596 9.2122 21.6748C8.96387 21.6423 8.72034 21.5648 8.10823 21.0459L7.04755 20.1517L6.54848 20.7681L5.8642 20.1956L6.36688 19.5751L5.55273 18.8854L6.10713 18.2306L6.89963 18.9089L7.8617 17.7183C7.35902 17.313 7.20028 17.2012 6.98922 17.0503L7.54361 16.3594Z" fill="#8B92C7"/>
<path d="M12.0941 17.6825C12.5882 17.2843 13.037 16.833 13.4325 16.3368C13.6811 16.0717 13.8189 15.7217 13.8176 15.3584C13.8164 14.995 13.6763 14.6459 13.4259 14.3826C13.2561 14.1684 13.0191 14.0176 12.7531 13.9545C12.5919 13.9247 12.4259 13.9359 12.2703 13.9872C12.1146 14.0385 11.9744 14.1281 11.8626 14.2479C11.456 14.6567 11.0932 15.1069 10.7802 15.5912C10.2992 16.3019 10.2481 16.3813 10.1856 16.4751L9.34375 15.8197C9.5518 15.5731 9.6913 15.3939 10.0431 14.9406C10.4156 14.408 10.8433 13.9162 11.319 13.4734C11.5166 13.2958 11.7493 13.1618 12.0021 13.08C12.2549 12.9983 12.522 12.9707 12.7862 12.9991C13.0503 13.0275 13.3055 13.1111 13.5352 13.2446C13.7649 13.3782 13.9639 13.5586 14.1192 13.7741C14.4298 14.0867 14.6397 14.4851 14.7218 14.9181C14.8039 15.3511 14.7544 15.7987 14.5798 16.2033C14.1611 17.0037 13.5755 17.705 12.8625 18.2597L12.0941 17.6825Z" fill="#8B92C7"/>
<path d="M14.3449 10.6839C14.7516 11.5632 15.225 12.4101 15.761 13.2171C16.152 13.8242 16.5946 14.3966 17.0838 14.9278L16.3767 15.4906C15.9053 14.9698 15.4769 14.4116 15.096 13.8214C14.5314 12.9509 14.0124 12.0518 13.541 11.1276L14.3419 10.6845L14.3449 10.6839ZM17.2913 9.11629L17.8162 9.9112L15.4904 11.4517L14.9661 10.6568L17.2907 9.11328L17.2913 9.11629ZM17.0508 12.16C17.0328 12.4066 17.0934 12.6524 17.2239 12.8623C17.453 13.2105 17.8433 13.0313 18.2732 12.7469C18.63 12.5143 18.9714 12.2591 19.2954 11.9827L19.8432 12.7908C19.5912 13.0043 19.3259 13.2015 19.0489 13.3813C18.3075 13.8725 17.2991 14.4834 16.6275 13.4672C16.399 13.1065 16.2708 12.6914 16.2559 12.2647L17.0502 12.1576L17.0508 12.16Z" fill="#8B92C7"/>
<path d="M19.0006 7.70312C19.3975 8.60506 20.2543 10.4132 20.3235 10.5533C20.6686 11.2508 20.9753 11.5436 21.609 11.2297C22.6697 10.706 22.4148 9.64049 22.167 8.88467L23.0852 8.88106C23.2987 9.50747 23.3275 10.1821 23.1682 10.8244C23.0822 11.1036 22.9351 11.3601 22.7374 11.5752C22.5398 11.7903 22.2966 11.9587 22.0257 12.0679C20.5658 12.7895 19.9723 11.8454 19.4281 10.7415C19.2219 10.326 18.335 8.4824 18.1504 8.1096L18.9982 7.70433L19.0006 7.70312Z" fill="#8B92C7"/>
<path d="M24.5546 5.80484L24.3959 5.34304L25.2167 5.06044L25.3766 5.52163L26.9267 4.98828L27.2009 5.7862L25.6508 6.32014L25.7963 6.74105L27.2334 6.24619L27.4998 7.02245L26.0633 7.51732L26.2629 8.09937C26.8851 8.1699 27.4919 8.33982 28.0602 8.60265L27.8197 9.6032C27.4343 9.37677 27.0233 9.19711 26.5954 9.06805L26.6207 9.17448C26.6663 9.28453 26.686 9.40361 26.6782 9.52248C26.6703 9.64136 26.6352 9.75683 26.5756 9.85996C26.3962 10.1595 26.1054 10.3757 25.7669 10.4612C24.8649 10.7727 24.2486 10.4546 24.0345 9.8335C23.7982 9.14261 24.2149 8.52689 25.0483 8.24067C25.1502 8.19908 25.2583 8.17489 25.3682 8.16912L25.2401 7.79812L23.515 8.3916L23.2486 7.61653L24.9725 7.02185L24.8282 6.60095L22.9961 7.2317L22.7207 6.43319L24.5546 5.80484ZM25.637 8.93156C25.4944 8.9249 25.3518 8.94405 25.2161 8.98808C25.0213 9.05482 24.7056 9.23942 24.8102 9.54247C24.9202 9.86176 25.3069 9.75413 25.4211 9.71444C25.857 9.56472 25.7765 9.33022 25.7278 9.18771L25.6388 8.93156H25.637Z" fill="#8B92C7"/>
<path d="M30.1101 3.77653L30.9843 3.60938L31.0884 4.15415L32.4966 3.88296L32.6631 4.75303L31.2549 5.02542L31.4954 6.29896C31.6056 6.55631 31.6898 6.82401 31.7468 7.09808C31.8328 7.4111 31.8178 7.74327 31.704 8.0473C31.5902 8.35132 31.3834 8.61169 31.113 8.79132C30.7031 9.07934 30.2338 9.27167 29.7397 9.35413L29.3188 8.57245C29.698 8.50783 30.0686 8.4001 30.4233 8.25136C30.8442 8.03549 30.8797 7.83887 30.9044 7.67953C30.7871 7.82139 30.6212 7.91444 30.439 7.94049C30.2843 7.96476 30.1263 7.95744 29.9746 7.91897C29.8228 7.88049 29.6804 7.81166 29.556 7.71664C29.4316 7.62161 29.3277 7.50235 29.2507 7.36607C29.1736 7.22979 29.125 7.0793 29.1077 6.9237C29.0708 6.76646 29.0666 6.60331 29.0954 6.44439C29.1242 6.28546 29.1853 6.13415 29.275 5.99984C29.3647 5.86553 29.4811 5.75109 29.6169 5.66363C29.7527 5.57617 29.905 5.51756 30.0644 5.49142C30.202 5.46957 30.3424 5.47181 30.4792 5.49804L30.4143 5.18476L27.9562 5.65497L27.7891 4.7849L30.2249 4.3195L30.1101 3.77834V3.77653ZM30.7035 6.54248C30.6969 6.48832 30.6794 6.43607 30.6519 6.38894C30.6244 6.34181 30.5875 6.3008 30.5436 6.26843C30.4997 6.23605 30.4496 6.21299 30.3965 6.20066C30.3433 6.18834 30.2882 6.187 30.2345 6.19674C30.1706 6.20901 30.1101 6.23483 30.057 6.27247C30.004 6.3101 29.9596 6.35868 29.9269 6.41492C29.8942 6.47116 29.8739 6.53376 29.8674 6.5985C29.861 6.66324 29.8684 6.72861 29.8894 6.79021C29.8925 6.85504 29.9091 6.91849 29.9382 6.97652C29.9672 7.03455 30.0081 7.08586 30.0581 7.12719C30.1082 7.16851 30.1663 7.19892 30.2288 7.21648C30.2912 7.23404 30.3567 7.23836 30.4209 7.22916C30.4778 7.21939 30.5319 7.1975 30.5796 7.16497C30.6272 7.13245 30.6673 7.09005 30.6971 7.04066C30.727 6.99127 30.7458 6.93603 30.7524 6.87871C30.759 6.82139 30.7532 6.76332 30.7354 6.70844L30.7035 6.54308V6.54248Z" fill="#8B92C7"/>
<path d="M37.4388 1.2575C37.4731 2.33382 37.8946 2.60019 38.3179 2.59538C38.1814 4.78649 37.6937 7.65045 34.8683 8.651L34.4389 7.28125C36.6571 6.72145 37.2331 4.87608 37.3805 2.68678L34.0337 2.72646L34.0156 1.29599L37.4388 1.2569V1.2575ZM38.2385 2.30676C37.8964 2.31037 37.6204 1.8618 37.6138 1.29178C37.6071 0.721752 37.8729 0.274991 38.2151 0.26958C38.5572 0.264168 38.8338 0.714536 38.8398 1.27554C38.8458 1.83655 38.58 2.30075 38.2385 2.30496V2.30676ZM38.2217 0.868467C38.0804 0.868467 37.9679 1.06148 37.9709 1.28937C37.9739 1.52448 38.0912 1.71388 38.2319 1.71028C38.3726 1.70667 38.4832 1.51666 38.4832 1.28156C38.4832 1.04645 38.363 0.866663 38.2235 0.868467H38.2217Z" fill="#004097"/>
<path d="M43.8888 1.69955L43.6736 3.01157L39.9943 2.41028L40.2077 1.09766L43.8888 1.69895V1.69955ZM43.8858 3.93576C43.2244 6.88991 42.1884 8.8387 39.4014 8.73107L39.3623 7.35892C41.2425 7.52788 42.118 6.78228 42.6478 5.09024L39.2402 4.53344L39.4567 3.2106L43.8864 3.93215L43.8858 3.93576Z" fill="#004097"/>
<path d="M45.8683 10.3155L45.0114 9.98844L46.3271 6.54002C45.6331 6.84036 44.902 7.04662 44.1534 7.15334L44.1426 5.84132C45.1287 5.73668 46.0841 5.43661 46.953 4.95862C47.8577 4.46643 48.6967 3.86218 49.4502 3.16016L49.8561 4.27375C49.1387 4.88952 48.366 5.43763 47.5477 5.91107L45.8683 10.3155Z" fill="#004097"/>
<path d="M47.6672 9.75768C48.551 9.24072 49.3448 8.58355 50.0177 7.81189C50.8009 6.9492 51.5349 6.04302 52.216 5.09766L52.8378 5.70677C50.4031 8.87378 49.1602 10.2345 47.6348 11.0679L47.6672 9.75768ZM54.3019 6.53775C54.1349 6.94483 53.9398 7.33983 53.718 7.71989L53.8106 7.73914C52.862 9.24429 52.1877 10.9057 51.8192 12.6463L50.5619 13.0389C50.9467 11.1912 51.7867 9.32835 53.6934 6.281L54.3019 6.53775ZM54.0013 7.65315C54.2407 7.21813 54.4502 6.76732 54.6284 6.30385L55.0944 6.44094C54.9343 6.90021 54.7375 7.34581 54.5057 7.77341L54.0013 7.65315ZM54.6843 7.9538C54.9119 7.51392 55.1126 7.06073 55.2856 6.59668L55.7432 6.72776C55.5744 7.18676 55.3776 7.63496 55.1539 8.06985L54.6855 7.9544L54.6843 7.9538Z" fill="#004097"/>
<path d="M56.4707 11.5275C56.4812 10.8779 56.3863 10.231 56.1899 9.61177L57.3167 9.08984C57.5495 9.69317 57.6731 10.3331 57.6817 10.9797L56.4707 11.5275ZM54.4804 12.5377C54.5177 11.8951 54.4527 11.2507 54.288 10.6286L55.4185 10.0964C55.6245 10.7008 55.7174 11.338 55.6926 11.976L54.481 12.5377H54.4804ZM52.3158 12.6086C53.5935 13.7727 54.7552 14.365 58.4165 12.3254L58.4309 13.3729C54.5051 15.4455 52.8479 15.0757 51.2617 13.7781L52.3158 12.6086Z" fill="#004097"/>
<path d="M60 19.4622L58.6068 20.046L56.7578 15.6301L58.1516 15.0469L60 19.4622Z" fill="#004097"/>
<path d="M9.26238 59.803H8.4807V56.4718H7.51562V55.6902C7.6586 55.7058 7.80327 55.691 7.94009 55.6466C8.0769 55.6022 8.20274 55.5293 8.30929 55.4327C8.41585 55.3361 8.50069 55.218 8.55823 55.0861C8.61576 54.9543 8.64467 54.8118 8.64305 54.668H9.26418L9.26238 59.803Z" fill="#004097"/>
<path d="M12.7885 54.5664C13.5587 54.5664 14.2075 55.211 14.2075 57.2121C14.2075 59.2565 13.5593 59.9029 12.7885 59.9029C12.0297 59.9029 11.3809 59.2583 11.3809 57.2121C11.3809 55.211 12.0291 54.5664 12.7885 54.5664ZM12.7885 59.0466C13.4271 59.0466 13.4271 57.7923 13.4271 57.2133C13.4271 56.6775 13.4271 55.4239 12.7885 55.4239C12.1613 55.4239 12.1613 56.6781 12.1613 57.2133C12.1607 57.7929 12.1607 59.0466 12.7885 59.0466Z" fill="#004097"/>
<path d="M16.9561 54.5664C17.1316 54.571 17.3044 54.6105 17.4644 54.6826C17.6245 54.7547 17.7686 54.8579 17.8883 54.9862C18.0081 55.1145 18.1011 55.2654 18.162 55.4301C18.2229 55.5947 18.2503 55.7698 18.2429 55.9452C18.2646 56.16 18.2231 56.3765 18.1234 56.568C18.0238 56.7596 17.8703 56.9178 17.6819 57.0233V57.0377C17.9235 57.138 18.1252 57.3152 18.2557 57.542C18.3862 57.7687 18.4381 58.0321 18.4034 58.2914C18.4232 58.4939 18.4008 58.6983 18.3376 58.8917C18.2743 59.085 18.1716 59.2632 18.036 59.4148C17.9003 59.5665 17.7347 59.6883 17.5495 59.7726C17.3644 59.8569 17.1637 59.9019 16.9603 59.9047C16.7552 59.9077 16.5518 59.867 16.3636 59.7855C16.1754 59.704 16.0066 59.5834 15.8685 59.4317C15.7305 59.28 15.6262 59.1007 15.5626 58.9057C15.499 58.7107 15.4776 58.5044 15.4998 58.3004C15.4668 58.0396 15.5198 57.7752 15.6508 57.5473C15.7818 57.3194 15.9836 57.1405 16.2255 57.0377V57.0233C16.0337 56.9272 15.8763 56.7742 15.7749 56.5852C15.6735 56.3961 15.6331 56.1803 15.6591 55.9674C15.6472 55.7891 15.6719 55.6102 15.7315 55.4418C15.7911 55.2733 15.8845 55.1188 16.0059 54.9876C16.1273 54.8565 16.2742 54.7515 16.4376 54.6791C16.601 54.6066 16.7774 54.5683 16.9561 54.5664ZM16.9615 59.12C17.3355 59.12 17.6229 58.7682 17.6229 58.2547C17.6354 58.1571 17.628 58.0579 17.6012 57.9631C17.5744 57.8684 17.5287 57.78 17.467 57.7033C17.4052 57.6266 17.3286 57.5632 17.2418 57.5168C17.1549 57.4704 17.0596 57.442 16.9615 57.4334C16.5821 57.4334 16.2796 57.719 16.2796 58.2475C16.2796 58.7761 16.5887 59.12 16.9627 59.12H16.9615ZM16.9561 56.7371C17.04 56.7357 17.1227 56.7165 17.1986 56.6807C17.2746 56.645 17.3421 56.5935 17.3966 56.5297C17.4512 56.4659 17.4916 56.3913 17.5152 56.3108C17.5387 56.2302 17.5449 56.1456 17.5333 56.0624C17.5333 55.7985 17.4401 55.3511 16.9561 55.3511C16.8695 55.3559 16.7849 55.3785 16.7075 55.4176C16.6301 55.4566 16.5616 55.5113 16.5063 55.5781C16.451 55.6449 16.4101 55.7224 16.3862 55.8057C16.3624 55.8891 16.3559 55.9765 16.3674 56.0624C16.3571 56.1463 16.3646 56.2313 16.3894 56.3121C16.4141 56.3929 16.4556 56.4675 16.5112 56.5312C16.5667 56.5948 16.635 56.646 16.7117 56.6815C16.7884 56.717 16.8716 56.7359 16.9561 56.7371Z" fill="#004097"/>
<path d="M19.7833 56.6409C19.7556 55.4671 20.2559 54.5664 21.1801 54.5664C21.8842 54.5664 22.4993 55.1677 22.4993 56.1719C22.5089 56.466 22.4522 56.7585 22.3333 57.0277C22.2144 57.2968 22.0365 57.5358 21.8126 57.7268C21.3771 58.0531 21.0017 58.4527 20.7032 58.9077H22.5233V59.8037H19.6973C19.7027 58.6167 20.2468 58.1104 20.9125 57.5091C21.254 57.2013 21.7158 56.8856 21.7212 56.2548C21.7212 55.7738 21.4807 55.4629 21.1434 55.4629C20.681 55.4629 20.5325 56.1009 20.5325 56.6439L19.7833 56.6409Z" fill="#004097"/>
<path d="M25.2611 54.5664C26.0314 54.5664 26.6802 55.211 26.6802 57.2121C26.6802 59.2565 26.032 59.9029 25.2611 59.9029C24.5023 59.9029 23.8535 59.2583 23.8535 57.2121C23.8541 55.211 24.5023 54.5664 25.2611 54.5664ZM25.2611 59.0466C25.8997 59.0466 25.8997 57.7923 25.8997 57.2133C25.8997 56.6775 25.8997 55.4239 25.2611 55.4239C24.634 55.4239 24.634 56.6781 24.634 57.2133C24.634 57.7929 24.634 59.0466 25.2611 59.0466Z" fill="#004097"/>
<path d="M29.6127 58.6118H27.9844V57.66L29.6566 54.668H30.3541V57.758H30.8658V58.6118H30.3541V59.8024H29.6127V58.6118ZM29.6127 55.9728H29.5958L28.6007 57.758H29.6127V55.9728Z" fill="#004097"/>
<path d="M32.2583 56.6409C32.2307 55.4671 32.7309 54.5664 33.6551 54.5664C34.3592 54.5664 34.9744 55.1677 34.9744 56.1719C34.9841 56.466 34.9274 56.7585 34.8085 57.0277C34.6896 57.2969 34.5116 57.5359 34.2877 57.7268C33.8517 58.0531 33.4757 58.4527 33.1765 58.9077H34.996V59.8037H32.1699C32.1753 58.6167 32.7195 58.1104 33.3851 57.5091C33.7261 57.2013 34.1885 56.8856 34.1939 56.2548C34.1939 55.7738 33.9534 55.4629 33.616 55.4629C33.1536 55.4629 33.0051 56.1009 33.0051 56.6439L32.2583 56.6409Z" fill="#004097"/>
<path d="M36.4159 56.6409C36.3883 55.4671 36.8885 54.5664 37.8127 54.5664C38.5168 54.5664 39.132 55.1677 39.132 56.1719C39.1416 56.466 39.0849 56.7585 38.966 57.0277C38.8471 57.2968 38.6691 57.5358 38.4453 57.7268C38.0091 58.0529 37.6331 58.4526 37.3341 58.9077H39.1542V59.8037H36.3281C36.3335 58.6167 36.8777 58.1104 37.5433 57.5091C37.8849 57.2013 38.3467 56.8856 38.3521 56.2548C38.3521 55.7738 38.1116 55.4629 37.7742 55.4629C37.3118 55.4629 37.1633 56.1009 37.1633 56.6439L36.4159 56.6409Z" fill="#004097"/>
<path d="M42.0359 53.707C41.6312 54.7671 41.4273 55.8933 41.4346 57.028C41.4253 58.18 41.6274 59.324 42.031 60.403H41.3816C40.9123 59.3659 40.6653 58.2421 40.6565 57.1037C40.6475 55.9327 40.895 54.774 41.3816 53.7088L42.0359 53.707Z" fill="#004097"/>
<path d="M44.6205 54.5664C45.3908 54.5664 46.039 55.211 46.039 57.2121C46.039 59.2565 45.3908 59.9029 44.6205 59.9029C43.8617 59.9029 43.2129 59.2583 43.2129 57.2121C43.2129 55.211 43.8617 54.5664 44.6205 54.5664ZM44.6205 59.0466C45.2585 59.0466 45.2585 57.7923 45.2585 57.2133C45.2585 56.6775 45.2585 55.4239 44.6205 55.4239C43.9934 55.4239 43.9934 56.6781 43.9934 57.2133C43.9934 57.7929 43.9934 59.0466 44.6205 59.0466Z" fill="#004097"/>
<path d="M48.1772 58.4808C48.2265 58.826 48.4249 59.1194 48.6943 59.1194C49.2613 59.1194 49.4093 58.1285 49.4315 57.556L49.4207 57.5416C49.3495 57.7129 49.2286 57.8588 49.0736 57.9606C48.9186 58.0625 48.7367 58.1155 48.5512 58.1128C48.3723 58.102 48.1986 58.0485 48.0446 57.9568C47.8906 57.865 47.7608 57.7377 47.6661 57.5855C47.4634 57.2395 47.3608 56.844 47.3697 56.443C47.3697 55.3938 47.9108 54.5664 48.7166 54.5664C49.8819 54.5664 50.1952 55.9223 50.1952 57.2211C50.1952 58.4742 49.7773 59.9041 48.6835 59.9041C48.0179 59.9041 47.5236 59.384 47.4352 58.4814L48.1772 58.4808ZM49.3606 56.3763C49.3606 55.8995 49.1291 55.4226 48.7382 55.4226C48.3642 55.4226 48.1496 55.8995 48.1496 56.3619C48.1496 56.8459 48.3366 57.3299 48.7382 57.3299C49.1573 57.3312 49.3606 56.8838 49.3606 56.3763Z" fill="#004097"/>
<path d="M51.373 60.4012C51.7784 59.3436 51.9824 58.2195 51.9743 57.0869C51.9837 55.9336 51.7826 54.7882 51.3809 53.707H52.0297C52.4983 54.7471 52.7453 55.8734 52.7548 57.0141C52.7639 58.1828 52.5157 59.3392 52.0279 60.4012H51.373Z" fill="#004097"/>
</g>
<defs>
<clipPath id="clip0_6528_383426">
<rect width="60" height="60.1293" fill="white" transform="translate(0 0.273438)"/>
</clipPath>
</defs>
</svg>
