<svg viewBox="0 0 28 28" fill="none" xmlns="http://www.w3.org/2000/svg">
<circle cx="14" cy="14" r="14" fill="#BE965A"/>
<circle cx="14" cy="14" r="12" stroke="#132333" stroke-width="0.5"/>
<path d="M12.5864 12.4487H13.7144C14.0757 12.4487 14.3735 12.3877 14.6079 12.2656C14.8423 12.1387 15.0156 11.9629 15.1279 11.7383C15.2451 11.5088 15.3037 11.2427 15.3037 10.9399C15.3037 10.6665 15.25 10.4248 15.1426 10.2148C15.04 10 14.8813 9.83398 14.6665 9.7168C14.4517 9.59473 14.1807 9.53369 13.8535 9.53369C13.5947 9.53369 13.3555 9.58496 13.1357 9.6875C12.916 9.79004 12.7402 9.93408 12.6084 10.1196C12.4766 10.3052 12.4106 10.5298 12.4106 10.7935H10.2939C10.2939 10.2075 10.4502 9.69727 10.7627 9.2627C11.0801 8.82812 11.5049 8.48877 12.0371 8.24463C12.5693 8.00049 13.1553 7.87842 13.7949 7.87842C14.5176 7.87842 15.1499 7.99561 15.6919 8.22998C16.2339 8.45947 16.6562 8.79883 16.959 9.24805C17.2617 9.69727 17.4131 10.2539 17.4131 10.918C17.4131 11.2549 17.335 11.582 17.1787 11.8994C17.0225 12.2119 16.7979 12.4951 16.5049 12.749C16.2168 12.998 15.8652 13.1982 15.4502 13.3496C15.0352 13.4961 14.5688 13.5693 14.0513 13.5693H12.5864V12.4487ZM12.5864 14.0527V12.9614H14.0513C14.6323 12.9614 15.1426 13.0273 15.582 13.1592C16.0215 13.291 16.3901 13.4814 16.688 13.7305C16.9858 13.9746 17.2104 14.2651 17.3618 14.6021C17.5132 14.9341 17.5889 15.3027 17.5889 15.708C17.5889 16.2061 17.4937 16.6504 17.3032 17.041C17.1128 17.4268 16.8442 17.7539 16.4976 18.0225C16.1558 18.291 15.7554 18.4961 15.2964 18.6377C14.8374 18.7744 14.3369 18.8428 13.7949 18.8428C13.3457 18.8428 12.9038 18.7817 12.4692 18.6597C12.0396 18.5327 11.6489 18.3447 11.2974 18.0957C10.9507 17.8418 10.6724 17.5244 10.4624 17.1436C10.2573 16.7578 10.1548 16.3013 10.1548 15.7739H12.2715C12.2715 16.0474 12.3398 16.2915 12.4766 16.5063C12.6133 16.7212 12.8013 16.8896 13.0405 17.0117C13.2847 17.1338 13.5557 17.1948 13.8535 17.1948C14.1904 17.1948 14.4785 17.1338 14.7178 17.0117C14.9619 16.8848 15.1475 16.709 15.2744 16.4844C15.4062 16.2549 15.4722 15.9888 15.4722 15.686C15.4722 15.2954 15.4014 14.9829 15.2598 14.7485C15.1182 14.5093 14.9155 14.3335 14.6519 14.2212C14.3882 14.1089 14.0757 14.0527 13.7144 14.0527H12.5864Z" fill="black"/>
</svg>
