<svg viewBox="0 0 28 28" fill="none" xmlns="http://www.w3.org/2000/svg">
<circle cx="14" cy="14" r="14" fill="url(#paint0_linear_1267_52542)"/>
<circle cx="14" cy="14" r="12" stroke="#132333" stroke-width="0.5"/>
<path d="M17.7207 17.0483V18.6963H10.4258V17.29L13.8755 13.5913C14.2222 13.2056 14.4956 12.8662 14.6958 12.5732C14.896 12.2754 15.04 12.0093 15.1279 11.7749C15.2207 11.5356 15.2671 11.3086 15.2671 11.0938C15.2671 10.7715 15.2134 10.4956 15.106 10.2661C14.9985 10.0317 14.8398 9.85107 14.6299 9.72412C14.4248 9.59717 14.1709 9.53369 13.8682 9.53369C13.5459 9.53369 13.2676 9.61182 13.0332 9.76807C12.8037 9.92432 12.6279 10.1416 12.5059 10.4199C12.3887 10.6982 12.3301 11.0132 12.3301 11.3647H10.2134C10.2134 10.73 10.3647 10.1489 10.6675 9.62158C10.9702 9.08936 11.3975 8.66699 11.9492 8.35449C12.501 8.03711 13.1553 7.87842 13.9121 7.87842C14.6592 7.87842 15.2891 8.00049 15.8018 8.24463C16.3193 8.48389 16.71 8.83057 16.9736 9.28467C17.2422 9.73389 17.3765 10.271 17.3765 10.896C17.3765 11.2476 17.3203 11.5918 17.208 11.9287C17.0957 12.2607 16.9346 12.5928 16.7246 12.9248C16.5195 13.252 16.2705 13.584 15.9775 13.9209C15.6846 14.2578 15.3599 14.6069 15.0034 14.9683L13.1504 17.0483H17.7207Z" fill="black"/>
<defs>
<linearGradient id="paint0_linear_1267_52542" x1="20" y1="2.5" x2="4" y2="24" gradientUnits="userSpaceOnUse">
<stop stop-color="#EFF6FD"/>
<stop offset="1" stop-color="#ABBCCC"/>
</linearGradient>
</defs>
</svg>
