<svg viewBox="0 0 28 28" fill="none" xmlns="http://www.w3.org/2000/svg">
<circle cx="14" cy="14" r="14" fill="#90C6F0"/>
<circle cx="14" cy="14" r="12" stroke="#132333" stroke-width="0.5"/>
<path d="M12.4106 13.8403L10.7261 13.4375L11.334 8.03223H17.3252V9.73877H13.0698L12.8062 12.1045C12.9478 12.0215 13.1626 11.9336 13.4507 11.8408C13.7388 11.7432 14.061 11.6943 14.4175 11.6943C14.9351 11.6943 15.394 11.7749 15.7944 11.936C16.1948 12.0972 16.5342 12.3315 16.8125 12.6392C17.0957 12.9468 17.3105 13.3228 17.457 13.7671C17.6035 14.2114 17.6768 14.7144 17.6768 15.2759C17.6768 15.7495 17.6035 16.2012 17.457 16.6309C17.3105 17.0557 17.0884 17.4365 16.7905 17.7734C16.4927 18.1055 16.1191 18.3667 15.6699 18.5571C15.2207 18.7476 14.6885 18.8428 14.0732 18.8428C13.6143 18.8428 13.1699 18.7744 12.7402 18.6377C12.3154 18.501 11.9321 18.2983 11.5903 18.0298C11.2534 17.7612 10.9824 17.4365 10.7773 17.0557C10.5771 16.6699 10.4722 16.2305 10.4624 15.7373H12.5571C12.5864 16.04 12.6646 16.3013 12.7915 16.521C12.9233 16.7358 13.0967 16.9019 13.3115 17.019C13.5264 17.1362 13.7778 17.1948 14.0659 17.1948C14.3345 17.1948 14.564 17.1436 14.7544 17.041C14.9448 16.9385 15.0986 16.7969 15.2158 16.6162C15.333 16.4307 15.4185 16.2158 15.4722 15.9717C15.5308 15.7227 15.5601 15.4541 15.5601 15.166C15.5601 14.8779 15.5259 14.6167 15.4575 14.3823C15.3892 14.1479 15.2842 13.9453 15.1426 13.7744C15.001 13.6035 14.8203 13.4717 14.6006 13.3789C14.3857 13.2861 14.1343 13.2397 13.8462 13.2397C13.4556 13.2397 13.1528 13.3008 12.938 13.4229C12.728 13.5449 12.5522 13.6841 12.4106 13.8403Z" fill="black"/>
</svg>
