<svg viewBox="0 0 240 64" fill="none" xmlns="http://www.w3.org/2000/svg">
<g clip-path="url(#clip0_16126_81293)">
<path d="M40.9631 51.5888H40.4171C38.0197 51.5888 36.0673 49.6477 36.0673 47.264V34.9094H38.257C39.4617 34.9094 40.4409 33.9418 40.4409 32.7382C40.4409 31.5346 39.4617 30.567 38.257 30.567H36.0673V28.3958C36.0673 27.1922 35.0881 26.2246 33.8835 26.2246C32.6788 26.2246 31.6997 27.1981 31.6997 28.3958V30.567H29.5158C28.3112 30.567 27.332 31.5405 27.332 32.7382C27.332 33.9359 28.3112 34.9094 29.5158 34.9094H31.6997V47.264C31.6997 52.049 35.6103 55.9371 40.4171 55.9371H40.9631C42.1677 55.9371 43.1469 54.9636 43.1469 53.7659C43.1469 52.5682 42.1677 51.5947 40.9631 51.5947V51.5888Z" fill="#0099DD"/>
<path d="M24.566 51.5892H24.0201C21.6226 51.5892 19.6703 49.6481 19.6703 47.2645V39.2286C19.6703 34.4496 15.7418 30.5615 10.935 30.5615H10.389C9.18439 30.5615 8.20523 31.535 8.20523 32.7327C8.20523 33.9304 9.18439 34.9039 10.389 34.9039H10.935C12.8814 34.9039 14.5371 36.1901 15.089 37.9483H8.71558C3.90881 37.9483 -0.0078125 41.8364 -0.0078125 46.6155C-0.0078125 51.3945 3.90881 55.2826 8.71558 55.2826H10.9469C13.3977 55.2826 15.6112 54.2737 17.1957 52.6512C18.792 54.6454 21.2547 55.9257 24.0141 55.9257H24.5601C25.7648 55.9257 26.7439 54.9522 26.7439 53.7545C26.7439 52.5568 25.7648 51.5833 24.5601 51.5833L24.566 51.5892ZM10.9528 50.9461H8.72151C6.32406 50.9461 4.37169 49.005 4.37169 46.6214C4.37169 44.2377 6.32406 42.2966 8.72151 42.2966H15.3026V46.6214C15.3026 49.005 13.3562 50.9461 10.9528 50.9461Z" fill="#0099DD"/>
<path d="M56.8112 29.9004C52.0044 29.9004 48.0938 33.7885 48.0938 38.5734V47.2405C48.0938 52.0254 52.0044 55.9135 56.8112 55.9135C61.618 55.9135 65.5287 52.0254 65.5287 47.2405V38.5734C65.5287 33.7885 61.618 29.9004 56.8112 29.9004ZM61.161 47.2405C61.161 49.6241 59.2086 51.5652 56.8112 51.5652C54.4138 51.5652 52.4614 49.6241 52.4614 47.2405V38.5734C52.4614 36.1898 54.4138 34.2487 56.8112 34.2487C59.2086 34.2487 61.161 36.1898 61.161 38.5734V47.2405Z" fill="#0099DD"/>
<path d="M94.4285 51.5887H93.8825C91.4851 51.5887 89.5327 49.6476 89.5327 47.264V38.5968C89.5327 33.8178 85.6161 29.9238 80.8093 29.9238C76.0026 29.9238 72.0859 33.8178 72.0859 38.5968V53.7481C72.0859 54.9458 73.0651 55.9193 74.2698 55.9193C75.4744 55.9193 76.4536 54.9458 76.4536 53.7481V38.5968C76.4536 36.2132 78.4059 34.2721 80.8034 34.2721C83.2008 34.2721 85.1532 36.2073 85.1532 38.5968V47.264C85.1532 52.0489 89.0639 55.937 93.8707 55.937H94.4166C95.6213 55.937 96.6004 54.9635 96.6004 53.7658C96.6004 52.5681 95.6213 51.5946 94.4166 51.5946L94.4285 51.5887Z" fill="#0099DD"/>
<path d="M114.578 51.5889C113.374 51.5889 112.395 52.5624 112.395 53.7601C112.395 54.9578 113.374 55.9313 114.578 55.9313C115.783 55.9313 116.762 54.9578 116.762 53.7601C116.762 52.5624 115.783 51.5889 114.578 51.5889Z" fill="#F00088"/>
<path d="M108.091 29.918C103.284 29.918 99.3672 33.812 99.3672 38.591V47.2581C99.3672 52.043 103.278 55.9311 108.091 55.9311H108.637C109.841 55.9311 110.82 54.9576 110.82 53.7599C110.82 52.5622 109.841 51.5887 108.637 51.5887H108.091C105.693 51.5887 103.741 49.6476 103.741 47.264V44.4733H114.624C115.829 44.4733 116.808 43.4998 116.808 42.3021V38.5969C116.808 33.8179 112.897 29.9239 108.091 29.9239V29.918ZM112.44 40.125H103.741V38.591C103.741 36.2074 105.693 34.2663 108.091 34.2663C110.488 34.2663 112.44 36.2015 112.44 38.591V40.125Z" fill="#0099DD"/>
<path d="M134.374 56.0903C132.748 56.0903 131.182 55.7422 129.686 55.046C128.191 54.3498 126.927 53.3822 125.906 52.1432L128.345 50.0723C129.224 51.0222 130.197 51.7597 131.265 52.2848C132.333 52.8099 133.389 53.0695 134.422 53.0695C135.983 53.0695 137.193 52.7509 138.048 52.1196C138.902 51.4883 139.33 50.5974 139.33 49.4528C139.33 48.7389 139.134 48.0899 138.742 47.4999C138.35 46.9158 137.715 46.3612 136.837 45.8479C135.959 45.3346 134.802 44.8036 133.366 44.2667C130.778 43.3168 128.921 42.2725 127.787 41.1397C126.654 40.0069 126.09 38.5968 126.09 36.9153C126.09 35.045 126.82 33.5287 128.28 32.3723C129.74 31.2159 131.645 30.6377 133.989 30.6377C135.538 30.6377 136.986 30.9327 138.345 31.5286C139.698 32.1245 140.855 32.9741 141.816 34.0892L139.472 36.0421C137.905 34.455 136.066 33.6644 133.941 33.6644C132.553 33.6644 131.455 33.9535 130.648 34.5317C129.841 35.1099 129.437 35.9064 129.437 36.9212C129.437 37.8593 129.853 38.6617 130.683 39.3343C131.514 40.0069 133.027 40.7503 135.229 41.5586C137.015 42.2253 138.451 42.9274 139.537 43.6649C140.623 44.4024 141.407 45.2402 141.893 46.1724C142.38 47.1105 142.623 48.1843 142.623 49.4056C142.623 51.4824 141.887 53.1167 140.422 54.3085C138.956 55.5003 136.938 56.0903 134.369 56.0903H134.374Z" fill="#0099DD"/>
<path d="M148.137 55.518V22.708H151.49V34.3428C152.178 33.151 153.092 32.2365 154.243 31.5934C155.394 30.9503 156.682 30.6317 158.118 30.6317C160.177 30.6317 161.821 31.0624 163.061 31.9297C164.296 32.797 165.192 34.0183 165.744 35.6054C166.296 37.1925 166.569 39.0687 166.569 41.2458V55.5239H163.216V40.6558C163.216 38.5613 162.771 36.8798 161.886 35.6113C161.002 34.3428 159.578 33.7056 157.614 33.7056C155.65 33.7056 154.077 34.3192 153.044 35.5405C152.006 36.7618 151.49 38.5613 151.49 40.939V55.5239H148.137V55.518Z" fill="#0099DD"/>
<path d="M182.725 56.0904C179.503 56.0904 176.957 54.9517 175.094 52.6743C173.225 50.3969 172.293 47.2994 172.293 43.3818C172.293 40.7622 172.714 38.5024 173.563 36.6026C174.406 34.6969 175.61 33.2278 177.177 32.1894C178.738 31.151 180.589 30.6318 182.731 30.6318C184.874 30.6318 186.743 31.1451 188.31 32.1658C189.87 33.1865 191.075 34.6497 191.912 36.5554C192.748 38.4611 193.17 40.7209 193.17 43.3346C193.17 45.9483 192.748 48.2139 191.9 50.1255C191.051 52.0371 189.847 53.5062 188.286 54.5387C186.719 55.5712 184.874 56.0845 182.731 56.0845L182.725 56.0904ZM182.725 52.9516C184.927 52.9516 186.648 52.102 187.882 50.4087C189.117 48.7095 189.74 46.3554 189.74 43.3405C189.74 40.3256 189.123 37.9537 187.882 36.2722C186.648 34.5907 184.927 33.747 182.725 33.747C180.524 33.747 178.767 34.5848 177.545 36.2545C176.322 37.9301 175.717 40.302 175.717 43.3818C175.717 46.4616 176.328 48.7626 177.563 50.4382C178.791 52.1138 180.512 52.9457 182.731 52.9457L182.725 52.9516Z" fill="#0099DD"/>
<path d="M198.855 63.5834V31.2041H202.208V33.747C203.947 31.6702 206.178 30.6318 208.908 30.6318C210.92 30.6318 212.659 31.1451 214.124 32.1776C215.59 33.2101 216.724 34.6733 217.525 36.579C218.32 38.4848 218.723 40.7327 218.723 43.3346C218.723 45.9365 218.32 48.2139 217.513 50.1255C216.706 52.0371 215.56 53.5062 214.065 54.5387C212.576 55.5712 210.807 56.0845 208.766 56.0845C207.395 56.0845 206.155 55.7954 205.057 55.2172C203.959 54.639 203.004 53.7835 202.208 52.6566V63.5775H198.855V63.5834ZM208.427 52.9457C210.629 52.9457 212.32 52.1138 213.501 50.45C214.682 48.7862 215.27 46.4144 215.27 43.3346C215.27 40.2548 214.653 38.0482 213.412 36.3253C212.178 34.6025 210.51 33.7411 208.422 33.7411C207.116 33.7411 205.917 34.0656 204.831 34.7146C203.745 35.3636 202.867 36.284 202.196 37.4758V49.0163C203.045 50.3025 203.989 51.276 205.045 51.9427C206.095 52.6094 207.223 52.9398 208.422 52.9398L208.427 52.9457Z" fill="#0099DD"/>
<path d="M231.738 56.0903C230.112 56.0903 228.545 55.7422 227.05 55.046C225.554 54.3498 224.29 53.3822 223.27 52.1432L225.709 50.0723C226.587 51.0222 227.56 51.7597 228.628 52.2848C229.696 52.8099 230.753 53.0695 231.785 53.0695C233.346 53.0695 234.557 52.7509 235.411 52.1196C236.266 51.4883 236.693 50.5974 236.693 49.4528C236.693 48.7389 236.497 48.0899 236.105 47.4999C235.714 46.9158 235.079 46.3612 234.2 45.8479C233.322 45.3346 232.165 44.8036 230.729 44.2667C228.142 43.3168 226.284 42.2725 225.151 41.1397C224.017 40.0069 223.453 38.5968 223.453 36.9153C223.453 35.045 224.183 33.5287 225.643 32.3723C227.103 31.2159 229.008 30.6377 231.352 30.6377C232.901 30.6377 234.349 30.9327 235.708 31.5286C237.061 32.1245 238.218 32.9741 239.179 34.0892L236.835 36.0421C235.269 34.455 233.429 33.6644 231.305 33.6644C229.916 33.6644 228.818 33.9535 228.011 34.5317C227.204 35.1099 226.8 35.9064 226.8 36.9212C226.8 37.8593 227.216 38.6617 228.047 39.3343C228.877 40.0069 230.391 40.7503 232.592 41.5586C234.379 42.2253 235.815 42.9274 236.901 43.6649C237.987 44.4024 238.77 45.2402 239.256 46.1724C239.743 47.1105 239.986 48.1843 239.986 49.4056C239.986 51.4824 239.251 53.1167 237.785 54.3085C236.319 55.5003 234.301 56.0903 231.732 56.0903H231.738Z" fill="#0099DD"/>
<path d="M34.7196 1.57396C34.7077 1.91617 34.6899 2.36457 34.6602 2.87787C35.6572 2.76577 36.6838 2.56517 37.4671 2.34097L37.4968 3.72747C36.6719 3.91037 35.6156 4.08147 34.6365 4.19357C34.6246 4.75997 34.6068 5.32637 34.6068 5.83377V6.32937C35.6453 6.03437 36.7016 5.87507 37.568 5.87507C39.6925 5.87507 41.2829 7.00787 41.2829 8.81918C41.2829 10.5066 40.2978 11.6807 38.2089 12.1763C37.568 12.3179 36.9271 12.3592 36.399 12.3887L35.8886 10.9432C36.4583 10.955 37.0695 10.955 37.5977 10.8429C38.7964 10.6187 39.8349 9.99328 39.8349 8.80148C39.8349 7.70998 38.8498 7.10227 37.5561 7.10227C36.5592 7.10227 35.5741 7.27338 34.6365 7.56838C34.6483 8.74248 34.6958 9.93428 34.6958 10.5007C34.6958 11.9993 34.138 12.4418 33.3013 12.4418C32.061 12.4418 30.168 11.309 30.168 9.95198C30.168 8.74838 31.6337 7.48578 33.3131 6.76597V5.88687C33.3131 5.39127 33.3131 4.85437 33.325 4.31747C32.9689 4.34697 32.6544 4.35877 32.3874 4.35877C31.521 4.35877 30.975 4.32927 30.5062 4.28797L30.4647 2.93097C31.2777 3.03127 31.8296 3.04307 32.3577 3.04307C32.6544 3.04307 32.9867 3.03127 33.3428 3.00177C33.3428 2.36457 33.3547 1.85717 33.3547 1.59756C33.3547 1.30256 33.3131 0.736163 33.2716 0.476562H34.8382C34.7967 0.747963 34.7552 1.22586 34.7255 1.56806L34.7196 1.57396ZM32.8977 10.9373C33.1826 10.9373 33.3843 10.7544 33.3843 10.2883C33.3843 9.82218 33.3547 9.01388 33.3428 8.09348C32.3043 8.60088 31.5625 9.32658 31.5625 9.89298C31.5625 10.4594 32.4171 10.9432 32.9037 10.9432L32.8977 10.9373ZM42.4579 4.08147L41.7576 5.21427C41.0752 4.58887 39.3661 3.58587 38.47 3.11977L39.0991 2.04597C40.1554 2.57107 41.7457 3.53277 42.4638 4.08737L42.4579 4.08147Z" fill="#0099DD"/>
<path d="M48.6778 3.58595C48.3514 4.16415 47.9241 4.76005 47.4791 5.34415V12.9906H46.1973V6.80145C45.7107 7.32655 45.1884 7.78085 44.7018 8.17615C44.5891 7.88115 44.2449 7.17315 44.0312 6.84275C45.3012 5.95185 46.6661 4.53585 47.5087 3.11984L48.6778 3.58595ZM48.476 0.54154C47.5918 1.78644 46.1973 3.11984 44.9155 3.95175C44.773 3.65675 44.4467 3.13164 44.233 2.86024C45.3427 2.15224 46.5949 1.00764 47.1942 0.0400391L48.476 0.53564V0.54154ZM57.2232 9.23816H55.1877V11.6336C55.1877 12.2826 55.0571 12.613 54.5883 12.7959C54.1195 12.9965 53.4371 13.0083 52.4223 13.0083C52.3511 12.6543 52.1671 12.1587 51.9951 11.8165C52.7072 11.846 53.3896 11.846 53.5914 11.8283C53.805 11.8165 53.8643 11.7693 53.8643 11.6041V9.23816H48.3811V8.10535H53.8643V7.07285H48.7253V5.98135H56.9561V7.07285H55.1877V8.10535H57.2232V9.23816ZM50.4165 9.32076C51.0456 9.88716 51.8111 10.6955 52.1671 11.2324L51.1702 11.9404C50.8438 11.4035 50.102 10.5539 49.473 9.94616L50.4106 9.32076H50.4165ZM56.3864 5.17305H49.5205V0.42944H56.3864V5.17305ZM55.0453 1.39114H50.8023V2.34104H55.0453V1.39114ZM55.0453 3.24374H50.8023V4.19365H55.0453V3.24374Z" fill="#0099DD"/>
<path d="M64.333 2.65411C65.057 2.54201 65.7691 2.38271 66.4278 2.17031L66.4693 3.47422C65.7572 3.67482 64.873 3.85772 63.9176 3.98162C63.2173 5.97582 61.983 8.44202 60.8258 9.99963L59.4609 9.30343C60.63 7.91692 61.8109 5.73392 62.4518 4.13502C62.0958 4.14682 61.7516 4.16452 61.4133 4.16452C60.8733 4.16452 60.2739 4.15272 59.7042 4.12322L59.6034 2.80751C60.1612 2.86651 60.8436 2.89011 61.4133 2.89011C61.8821 2.89011 62.3806 2.87831 62.8791 2.83111C63.0927 2.04051 63.2648 1.16141 63.2945 0.412109L64.8611 0.56551C64.7484 1.06111 64.5466 1.85171 64.333 2.64821V2.65411ZM68.2081 6.61892C68.2199 7.08502 68.2674 7.90512 68.3089 8.71343C69.5314 9.15003 70.5284 9.85803 71.2583 10.4952L70.5046 11.6988C69.9468 11.1914 69.2228 10.5778 68.3683 10.1117V10.507C68.3683 11.7106 67.6443 12.69 65.7631 12.69C64.1134 12.69 62.7723 11.982 62.7723 10.507C62.7723 9.17362 63.9829 8.24142 65.7513 8.24142C66.1785 8.24142 66.5761 8.28272 66.9619 8.34172C66.9203 7.22072 66.8491 5.89322 66.8194 4.95512H68.214C68.1843 5.55102 68.2021 6.04662 68.214 6.61302L68.2081 6.61892ZM65.5732 11.4038C66.6533 11.4038 67.0093 10.8079 67.0093 10.0468C67.0093 9.91703 67.0093 9.75183 66.9975 9.56303C66.5821 9.45093 66.1429 9.38013 65.6741 9.38013C64.7365 9.38013 64.0897 9.80493 64.0897 10.3831C64.0897 10.9908 64.6 11.4038 65.5732 11.4038ZM67.5553 3.51552L68.2793 2.42401C69.3059 2.87831 70.9853 3.81052 71.6974 4.32382L70.8844 5.49792C70.1011 4.84892 68.5226 3.95212 67.5494 3.51552H67.5553Z" fill="#0099DD"/>
<path d="M78.7977 1.57396C78.7858 1.91617 78.768 2.36457 78.7383 2.87787C79.7353 2.76577 80.7619 2.56517 81.5453 2.34097L81.5749 3.72747C80.7501 3.91037 79.6938 4.08147 78.7146 4.19357C78.7027 4.75997 78.6849 5.32637 78.6849 5.83377V6.32937C79.7234 6.03437 80.7797 5.87507 81.6461 5.87507C83.7706 5.87507 85.361 7.00787 85.361 8.81918C85.361 10.5066 84.3759 11.6807 82.287 12.1763C81.6461 12.3179 81.0052 12.3592 80.4771 12.3887L79.9667 10.9432C80.5364 10.955 81.1477 10.955 81.6758 10.8429C82.8745 10.6187 83.913 9.99328 83.913 8.80148C83.913 7.70998 82.9279 7.10227 81.6343 7.10227C80.6373 7.10227 79.6522 7.27338 78.7146 7.56838C78.7265 8.74248 78.7739 9.93428 78.7739 10.5007C78.7739 11.9993 78.2161 12.4418 77.3794 12.4418C76.1391 12.4418 74.2461 11.309 74.2461 9.95198C74.2461 8.74838 75.7119 7.48578 77.3913 6.76597V5.88687C77.3913 5.39127 77.3913 4.85437 77.4031 4.31747C77.0471 4.34697 76.7326 4.35877 76.4655 4.35877C75.5991 4.35877 75.0532 4.32927 74.5843 4.28797L74.5428 2.93097C75.3558 3.03127 75.9077 3.04307 76.4358 3.04307C76.7326 3.04307 77.0649 3.03127 77.4209 3.00177C77.4209 2.36457 77.4328 1.85717 77.4328 1.59756C77.4328 1.30256 77.3913 0.736163 77.3497 0.476562H78.9164C78.8748 0.747963 78.8333 1.22586 78.8036 1.56806L78.7977 1.57396ZM76.9759 10.9373C77.2607 10.9373 77.4625 10.7544 77.4625 10.2883C77.4625 9.82218 77.4328 9.01388 77.4209 8.09348C76.3824 8.60088 75.6406 9.32658 75.6406 9.89298C75.6406 10.4594 76.4952 10.9432 76.9818 10.9432L76.9759 10.9373ZM86.536 4.08147L85.8357 5.21427C85.1533 4.58887 83.4442 3.58587 82.5482 3.11977L83.1772 2.04597C84.2335 2.57107 85.8239 3.53277 86.536 4.08737V4.08147Z" fill="#0099DD"/>
<path d="M101.048 1.73359V3.00799H90.5502V5.33259C90.5502 7.5392 90.3365 10.8255 89.0963 12.9908C88.853 12.7784 88.2714 12.3831 87.9688 12.2415C89.12 10.2296 89.2209 7.3563 89.2209 5.33259V1.73359H94.3481V0.00488281H95.7308V1.73359H101.042H101.048ZM96.2352 4.77799H100.852V5.95209H96.2352V7.7634H99.9501V12.9908H98.597V12.4834H92.9298V13.0085H91.6361V7.7693H94.9V3.26759H96.2411V4.78389L96.2352 4.77799ZM98.597 8.9257H92.9298V11.3034H98.597V8.9257Z" fill="#0099DD"/>
<path d="M105.758 2.22911C105.515 3.39142 105.058 6.05232 105.058 7.56862C105.058 8.06422 105.087 8.55983 105.141 9.08493C105.384 8.50673 105.669 7.81052 105.894 7.28542L106.607 7.85182C106.239 8.92563 105.74 10.4419 105.598 11.1499C105.556 11.3505 105.515 11.6455 105.527 11.7989C105.527 11.9405 105.538 12.1529 105.556 12.324L104.263 12.4066C103.978 11.4154 103.734 9.74573 103.734 7.83413C103.734 5.72192 104.191 3.31472 104.346 2.18191C104.405 1.82791 104.458 1.39131 104.476 1.00781L106.055 1.14941C105.954 1.40311 105.811 1.96951 105.758 2.22321V2.22911ZM109.164 9.32683C109.164 9.96403 109.663 10.4891 111.384 10.4891C112.665 10.4891 113.734 10.377 114.932 10.1056L114.962 11.6219C114.066 11.793 112.885 11.9051 111.36 11.9051C108.939 11.9051 107.829 11.0673 107.829 9.69853C107.829 9.19113 107.9 8.64833 108.072 7.95802L109.354 8.07013C109.224 8.56573 109.17 8.94923 109.17 9.33273L109.164 9.32683ZM114.517 2.17601V3.62152C112.891 3.77492 110.203 3.79262 108.547 3.62152L108.535 2.17601C110.173 2.42972 113.033 2.37661 114.517 2.17601Z" fill="#0099DD"/>
<path d="M129.42 7.12648V12.9734H128.055V12.1356H119.634V12.997H118.293V7.12058H119.634V10.8435H123.07V6.27098H118.839V1.33857H120.162V5.00838H123.07V0.105469H124.423V5.00248H127.473V1.32087H128.868V6.27688H124.423V10.8494H128.055V7.12648H129.42Z" fill="#0099DD"/>
<path d="M135.069 4.49467C134.285 5.04927 133.443 5.55667 132.588 5.96967C132.446 5.67467 132.09 5.17907 131.805 4.89587C134.238 3.79257 136.564 1.75116 137.632 0.0224609H138.997C140.504 2.10516 142.872 3.83387 145.092 4.69527C144.777 5.01977 144.48 5.48587 144.249 5.88707C143.424 5.49177 142.552 4.99617 141.727 4.41207V5.51537H135.063V4.49467H135.069ZM132.618 6.98447H144.314V8.21758H137.792C137.324 9.16748 136.795 10.2295 136.285 11.1322C137.864 11.0732 139.632 11.0024 141.371 10.9316C140.843 10.3357 140.273 9.73978 139.721 9.24418L140.86 8.63648C142.154 9.72798 143.507 11.2266 144.166 12.2768L142.955 13.0261C142.801 12.7547 142.587 12.4479 142.326 12.1057C138.938 12.2768 135.318 12.4302 132.897 12.5305L132.725 11.2443L134.831 11.1735C135.3 10.2944 135.816 9.16158 136.155 8.21168H132.624V6.97857L132.618 6.98447ZM141.578 4.29407C140.297 3.38547 139.128 2.32347 138.374 1.29096C137.691 2.28217 136.606 3.34417 135.342 4.29407H141.578Z" fill="#0099DD"/>
<path d="M155.577 5.49772C154.978 6.02282 153.5 7.37982 153.055 7.84592C153.186 7.83412 153.441 7.85772 153.595 7.91672C154.094 7.99932 154.39 8.34152 154.58 8.90792C154.723 9.30322 154.895 9.94043 155.037 10.3534C155.18 10.849 155.506 11.0909 156.165 11.0909C157.173 11.0909 158.218 10.9611 158.9 10.8077L158.817 12.2945C158.218 12.3948 156.835 12.5069 156.099 12.5069C154.859 12.5069 154.147 12.2237 153.821 11.2915C153.678 10.8667 153.476 10.0997 153.364 9.73392C153.192 9.22652 152.895 8.99642 152.539 8.99642C152.183 8.99642 151.868 9.20882 151.542 9.53332C151.031 10.0407 149.69 11.4567 148.806 12.5777L147.453 11.6455C147.667 11.4744 147.963 11.2207 148.296 10.908C148.937 10.259 152.385 6.83112 153.749 5.44462C152.681 5.50362 150.586 5.68652 149.732 5.75732C149.245 5.78682 148.865 5.83992 148.551 5.89892L148.42 4.34131C148.747 4.37081 149.216 4.38262 149.702 4.38262C150.456 4.37082 153.732 4.18201 154.859 4.04041C155.102 4.01091 155.441 3.94011 155.583 3.88701L156.426 4.81922C156.111 5.04342 155.785 5.31482 155.583 5.49772H155.577ZM156.046 1.29101L155.862 2.60671C154.396 2.49461 151.833 2.17011 150.106 1.86921L150.331 0.583008C151.898 0.895708 154.634 1.20841 156.04 1.29101H156.046Z" fill="#0099DD"/>
<path d="M164.479 1.34961C165.221 1.34961 168.467 1.26701 169.238 1.19621C169.737 1.15491 169.992 1.12541 170.152 1.06641L170.935 2.08711C170.639 2.27001 170.336 2.47061 170.039 2.69481C169.315 3.23171 167.559 4.70671 166.55 5.52681C167.12 5.35571 167.689 5.28491 168.259 5.28491C170.639 5.28491 172.401 6.74222 172.401 8.72462C172.401 10.9784 170.591 12.5891 167.387 12.5891C165.423 12.5891 164.111 11.7277 164.111 10.4356C164.111 9.38542 165.049 8.44142 166.461 8.44142C168.229 8.44142 169.238 9.57422 169.422 10.9194C170.407 10.4946 170.93 9.72762 170.93 8.69512C170.93 7.36172 169.618 6.40002 167.838 6.40002C165.559 6.40002 164.218 7.46202 162.538 9.24382L161.5 8.19362C162.61 7.28502 164.39 5.79821 165.233 5.10791C166.028 4.45891 167.684 3.09601 168.396 2.47651C167.642 2.50601 165.179 2.61811 164.437 2.65941C164.081 2.67121 163.713 2.70071 163.381 2.74201L163.34 1.28471C163.696 1.32601 164.135 1.34371 164.479 1.34371V1.34961ZM167.126 11.3206C167.482 11.3206 167.826 11.3088 168.135 11.2616C168.022 10.2291 167.393 9.50342 166.455 9.50342C165.856 9.50342 165.417 9.88692 165.417 10.3117C165.417 10.9371 166.117 11.3147 167.126 11.3147V11.3206Z" fill="#0099DD"/>
<path d="M180.359 12.6483L179.148 11.5155C181.813 10.5361 183.065 9.32072 183.065 5.56832V5.00191H179.302V7.12592C179.302 7.70412 179.344 8.30002 179.374 8.50062H177.795C177.807 8.30002 177.866 7.72182 177.866 7.12592V5.00191H176.472C175.801 5.00191 175.22 5.03141 174.988 5.06091V3.51511C175.172 3.55641 175.813 3.62721 176.472 3.62721H177.866V1.99881C177.866 1.64481 177.837 1.23181 177.783 0.866006H179.392C179.362 1.04891 179.308 1.47371 179.308 1.99881V3.62721H183.071V1.98701C183.071 1.42061 183.029 0.954507 183 0.753906H184.608C184.578 0.966307 184.525 1.42061 184.525 1.98701V3.62721H185.866C186.566 3.62721 187.017 3.58591 187.29 3.54461V5.04321C187.065 5.01371 186.566 5.00191 185.878 5.00191H184.525V5.48572C184.525 9.13782 183.7 11.1615 180.365 12.6542L180.359 12.6483Z" fill="#0099DD"/>
<path d="M195.27 3.99879C196.753 3.09019 198.261 1.77448 199.228 0.629883L200.427 1.76268C199.347 2.85419 198.006 3.94569 196.593 4.86609V10.7425C196.593 11.3207 196.623 12.0995 196.694 12.4122H194.926C194.967 12.0995 195.009 11.3207 195.009 10.7425V5.81599C193.513 6.62429 191.632 7.4444 189.751 8.0108L189.051 6.60659C191.543 5.93989 193.68 4.97819 195.258 3.99879H195.27Z" fill="#0099DD"/>
<path d="M205.384 2.40058C205.384 1.94628 205.343 1.29728 205.254 0.813477H207.005C206.963 1.27958 206.904 1.90498 206.904 2.40058V4.60718C208.797 5.17358 211.503 6.17659 212.927 6.87279L212.286 8.41859C210.791 7.61029 208.47 6.71939 206.904 6.21199V10.5898C206.904 11.0264 206.945 11.8937 207.016 12.4011H205.266C205.337 11.9055 205.379 11.1385 205.379 10.5898V2.40058H205.384Z" fill="#0099DD"/>
</g>
<defs>
<clipPath id="clip0_16126_81293">
<rect width="240" height="63.5844" fill="white" transform="translate(0 0.00488281)"/>
</clipPath>
</defs>
</svg>
