<svg viewBox="0 0 55 15" fill="none" xmlns="http://www.w3.org/2000/svg">
<g clip-path="url(#clip0_4980_221251)">
<path d="M19.1885 12.1032H18.9318C17.8084 12.1032 16.8954 11.1883 16.8954 10.0649V4.2452H17.9203C18.4859 4.2452 18.9433 3.78773 18.9433 3.22217C18.9433 2.65661 18.4859 2.19915 17.9203 2.19915H16.8954V1.17612C16.8954 0.610565 16.436 0.153099 15.8723 0.153099C15.3087 0.153099 14.8493 0.610565 14.8493 1.17612V2.19915H13.8263C13.2607 2.19915 12.8033 2.65661 12.8033 3.22217C12.8033 3.78773 13.2607 4.2452 13.8263 4.2452H14.8493V10.0649C14.8493 12.3174 16.6811 14.1492 18.9337 14.1492H19.1904C19.756 14.1492 20.2134 13.6918 20.2134 13.1262C20.2134 12.5607 19.756 12.1032 19.1904 12.1032H19.1885Z" fill="#0099DD"/>
<path d="M11.5081 12.1032H11.2513C10.1279 12.1032 9.21495 11.1883 9.21495 10.0649V6.27967C9.21495 4.02901 7.37543 2.19722 5.12478 2.19722H4.86805C4.3025 2.19722 3.84503 2.65661 3.84503 3.22024C3.84503 3.78387 4.3025 4.24327 4.86805 4.24327H5.12478C6.03778 4.24327 6.8118 4.84743 7.07045 5.67743H4.08631C1.83372 5.67936 0 7.51116 0 9.76374C0 12.0163 1.83372 13.8481 4.08631 13.8481H5.1325C6.27906 13.8481 7.31752 13.3733 8.06066 12.607C8.8096 13.547 9.96195 14.1492 11.2533 14.1492H11.51C12.0756 14.1492 12.533 13.6918 12.533 13.1262C12.533 12.5607 12.0756 12.1032 11.51 12.1032H11.5081ZM5.13057 11.8001H4.08438C2.96098 11.8001 2.04798 10.8871 2.04798 9.76374C2.04798 8.64035 2.96098 7.72734 4.08438 7.72734H7.16697V9.76374C7.16697 10.8871 6.25396 11.8001 5.13057 11.8001Z" fill="#0099DD"/>
<path d="M26.6122 1.88645C24.3615 1.88645 22.5278 3.72018 22.5278 5.97276V10.0571C22.5278 12.3117 24.3615 14.1415 26.6122 14.1415C28.8628 14.1415 30.6965 12.3097 30.6965 10.0571V5.97276C30.6965 3.72018 28.8628 1.88645 26.6122 1.88645ZM28.6486 10.0552C28.6486 11.1786 27.7355 12.0935 26.6122 12.0935C25.4888 12.0935 24.5758 11.1805 24.5758 10.0552V5.97083C24.5758 4.84743 25.4888 3.93443 26.6122 3.93443C27.7355 3.93443 28.6486 4.84743 28.6486 5.97083V10.0552Z" fill="#0099DD"/>
<path d="M44.2313 12.1032H43.9746C42.8512 12.1032 41.9382 11.1883 41.9382 10.0649V5.98048C41.9382 3.7279 40.1045 1.89417 37.8538 1.89417C35.6032 1.89417 33.7695 3.7279 33.7695 5.98048V13.1185C33.7695 13.6841 34.2269 14.1415 34.7925 14.1415C35.3581 14.1415 35.8155 13.6841 35.8155 13.1185V5.98048C35.8155 4.85708 36.7285 3.94408 37.8519 3.94408C38.9753 3.94408 39.8883 4.85708 39.8883 5.98048V10.0649C39.8883 12.3174 41.7201 14.1492 43.9727 14.1492H44.2294C44.795 14.1492 45.2524 13.6918 45.2524 13.1262C45.2524 12.5607 44.793 12.1032 44.2294 12.1032H44.2313Z" fill="#0099DD"/>
<path d="M53.6683 12.1032C53.1027 12.1032 52.6453 12.5626 52.6453 13.1262C52.6453 13.6898 53.1027 14.1492 53.6683 14.1492C54.2339 14.1492 54.6913 13.6918 54.6913 13.1262C54.6913 12.5607 54.2339 12.1032 53.6683 12.1032Z" fill="#F00088"/>
<path d="M50.632 1.8961C48.3794 1.8961 46.5476 3.72983 46.5476 5.98241V10.0668C46.5476 12.3194 48.3794 14.1512 50.632 14.1512H50.8887C51.4543 14.1512 51.9118 13.6937 51.9118 13.1281C51.9118 12.5626 51.4543 12.1051 50.8887 12.1051H50.632C49.5086 12.1051 48.5956 11.1902 48.5956 10.0668V8.7523H53.6934C54.2589 8.7523 54.7164 8.2929 54.7164 7.72927V5.98434C54.7164 3.73176 52.8846 1.89803 50.632 1.89803V1.8961ZM52.6684 6.70432H48.5937V5.98241C48.5937 4.85901 49.5067 3.94601 50.6301 3.94601C51.7535 3.94601 52.6665 4.85901 52.6665 5.98241V6.70432H52.6684Z" fill="#0099DD"/>
</g>
<defs>
<clipPath id="clip0_4980_221251">
<rect width="54.7145" height="14" fill="white" transform="translate(0 0.151169)"/>
</clipPath>
</defs>
</svg>
