<svg xmlns="http://www.w3.org/2000/svg" xml:space="preserve" viewBox="0 0 170 43"><path fill="#4c4948" d="m 231.5,20.9 v 4.7 h 21.3 v 37.2 h 4.9 V 25.6 h 21.2 v -4.7 h -21.2 v -7.8 h -4.9 v 7.8 z" class="st0" transform="matrix(0.48780488,0,0,0.48780488,-60.439025,5.7560976)"/><path fill="#4c4948" d="M235.4 62.4c3.9-8.2 6.3-18.3 6.7-28.8h-5c-.5 10.7-3.1 21-7.4 28.8zM280.4 62.4C276.1 54.6 273.5 44.3 273 33.6h-5c.5 10.5 2.8 20.6 6.7 28.8zM285.6 17.3c-4.6 0-8.4-3.8-8.4-8.4 0-4.6 3.8-8.4 8.4-8.4 4.6 0 8.4 3.8 8.4 8.4 0 4.6-3.7 8.4-8.4 8.4zm0-12.7c-2.4 0-4.3 1.9-4.3 4.3 0 2.4 1.9 4.3 4.3 4.3 2.4 0 4.3-1.9 4.3-4.3 0-2.4-1.9-4.3-4.3-4.3zM371.4 62.9h-15.6v-5h15.6c20.5 0 27.8-8.1 27.8-31.1v-10h5v10c0 25.6-9.5 36.1-32.8 36.1z" class="st0" transform="matrix(0.48780488,0,0,0.48780488,-60.439025,5.7560976)"/><path fill="#4c4948" d="m 356.6,13.1 v 5.1 l 25.8,6.3 v -5.1 z" class="st0" transform="matrix(0.48780488,0,0,0.48780488,-60.439025,5.7560976)"/><path fill="#4c4948" d="M336.8 13.1c-2.7 7.4-10.8 13.3-16 15.6-6.2 2.7-19.7 5.2-28.7 5.2v5c7.6-.1 19-1.7 26.8-4.2v28.1h5V32.7C329.7 29.8 339.4 22.8 342 13h-5.2zM464.2 35.8c-11.6 3.8-28.6 3-37.6-4.9V13h-5.1v49.8h5.1V37.6c6.4 4 14.8 5.8 23 5.8 5.1 0 10.1-.7 14.6-2z" class="st0" transform="matrix(0.48780488,0,0,0.48780488,-60.439025,5.7560976)"/><path fill="#4c4948" d="m 136.7,20.7 36.4,41.8 h 3.7 V 13 h -4.6 V 54.8 L 136,13.1 135.9,13 h -3.8 v 49.5 h 4.6 z" class="st0" transform="matrix(0.48780488,0,0,0.48780488,-60.439025,5.7560976)"/><path fill="#4c4948" d="M 203.9,13 H 190 v 49.6 h 4.7 V 39.8 h 8.8 c 15.1,0 16.7,-9.4 16.7,-13.5 0.1,-4 -1.5,-13.3 -16.3,-13.3 z m -9.2,4 h 9.1 c 7.3,0 11.6,3.4 11.6,9.3 0,4.3 -2.1,9.4 -12,9.4 h -8.6 V 17 Z" class="st0" transform="matrix(0.48780488,0,0,0.48780488,-60.439025,5.7560976)"/></svg>