<svg viewBox="0 0 88 17" fill="none" xmlns="http://www.w3.org/2000/svg">
<g clip-path="url(#clip0_4980_271459)">
<path d="M38.6824 11.9053L30.7141 2.7191L30.6838 2.68604H29.8352V13.6135H30.8629V4.39432L38.8753 13.6135H39.7102V2.68604H38.6824V11.9053Z" fill="#E4007F"/>
<path d="M45.6836 2.68604H42.628V13.6135H43.6557V8.59339H45.6065C48.9321 8.59339 49.2931 6.51039 49.2931 5.61767C49.2931 4.72496 48.9404 2.6888 45.6864 2.6888L45.6836 2.68604ZM43.6557 3.57049H45.6533C47.2735 3.57049 48.202 4.32269 48.202 5.63145C48.202 6.57927 47.7446 7.70619 45.5597 7.70619H43.6557V3.57049Z" fill="#E4007F"/>
<path d="M54.7623 2.664C54.4868 3.54569 54.0377 4.31166 53.415 4.96742C52.8529 5.56257 52.1641 6.04199 51.3513 6.40293V5.3449C51.8968 5.07764 52.3955 4.69741 52.8502 4.20696C53.302 3.71652 53.6106 3.20128 53.7677 2.664H54.7623Z" fill="#E4007F"/>
<path d="M54.7486 5.86014C54.5144 6.74183 54.0983 7.56842 53.5032 8.33991H53.7429V13.6135H52.8254V9.07006C52.3983 9.49713 51.9078 9.84705 51.354 10.1143V9.04526C51.9244 8.71738 52.4121 8.30409 52.8143 7.79987C53.2662 7.23779 53.5858 6.59305 53.7704 5.8629H54.7513L54.7486 5.86014Z" fill="#E4007F"/>
<path d="M58.7382 2.664L56.6359 4.54035H58.8898L60.2619 3.36935H61.4963L57.3936 6.91817H59.2066C59.5841 6.91817 59.9533 6.88787 60.3142 6.82449C60.6752 6.76112 61.0113 6.66744 61.3199 6.5407L60.8405 4.96742H61.7718L62.6645 8.0258H61.758L61.5431 7.32045C61.2841 7.45546 60.9287 7.56291 60.4796 7.64833C60.0304 7.73099 59.5951 7.77507 59.1763 7.77507H57.9171C57.8152 8.11948 57.6416 8.49145 57.3881 8.89648H62.1079V9.67622C61.9233 10.1474 61.6147 10.6103 61.1822 11.0676C60.7496 11.525 60.2288 11.9328 59.6144 12.2938C60.1021 12.4398 60.5843 12.5528 61.0609 12.6299C61.5404 12.707 62.0308 12.7456 62.5323 12.7456V13.6135C61.7856 13.6135 61.0885 13.5419 60.4437 13.4014C59.7962 13.2609 59.1763 13.0542 58.5812 12.7814C57.953 13.0377 57.3192 13.2388 56.6883 13.3876C56.0546 13.5364 55.4098 13.6108 54.7568 13.6108V12.7429C55.2169 12.7429 55.6936 12.6988 56.1841 12.6134C56.6745 12.528 57.1512 12.4067 57.6113 12.2524C57.2752 12.01 56.9721 11.7399 56.6993 11.4479C56.4265 11.1531 56.1896 10.8307 55.9884 10.478C55.7873 10.6296 55.5806 10.7618 55.3712 10.8748C55.1618 10.9877 54.9552 11.0787 54.7541 11.1448V10.1501C55.1646 10.0069 55.5917 9.68725 56.038 9.18854C56.4816 8.68983 56.7709 8.21867 56.9059 7.77232H54.7541V6.91542H56.1014L57.9254 5.34214H55.4098V4.5376L57.5479 2.66124H58.7299L58.7382 2.664ZM56.2474 10.2659H56.8894C57.0575 10.602 57.2889 10.9023 57.581 11.1723C57.84 11.4148 58.1679 11.6435 58.5619 11.8529C59.7026 11.3156 60.5595 10.602 61.1298 9.7148H56.8012C56.6828 9.84981 56.5946 9.94624 56.5367 10.0041C56.4017 10.1226 56.3053 10.2108 56.2474 10.2686V10.2659Z" fill="#E4007F"/>
<path d="M67.872 2.664V4.31166H69.3434V5.24295H67.872V8.34542C68.233 8.23796 68.4975 8.15255 68.6656 8.09468C68.8998 8.01203 69.1257 7.91835 69.3461 7.81916V8.80004C68.886 8.98464 68.3928 9.15272 67.8748 9.3015V12.3544C67.8748 12.7236 67.7618 13.0239 67.5359 13.2581C67.31 13.4923 66.9876 13.6108 66.566 13.6108H65.2958V12.6795H66.3401C66.4834 12.6795 66.6129 12.6299 66.7314 12.528C66.8498 12.4288 66.9077 12.3048 66.9077 12.1643V9.55224C66.4806 9.64592 66.1307 9.7148 65.8634 9.76715C65.5934 9.81674 65.2931 9.86358 64.9569 9.90491V8.94883C65.4942 8.89923 66.1445 8.78075 66.9077 8.59615V5.2402H64.9569V4.30891H66.9077V2.66124H67.8776L67.872 2.664Z" fill="#E4007F"/>
<path d="M72.7158 2.664L71.0158 12.4673H71.8204C72.4321 12.4673 72.9721 12.4012 73.4377 12.2717C73.9034 12.1422 74.3332 11.9245 74.7272 11.6242L73.9227 8.22694H74.8925L76.1379 13.6135H75.1929L74.9531 12.5693C74.5509 12.8724 74.1018 13.1011 73.6058 13.2554C73.1099 13.4096 72.5009 13.4896 71.7818 13.4896H69.291V12.4701H70.0212L71.6826 2.66675H72.7158V2.664Z" fill="#E4007F"/>
<path d="M85.955 4.16563C86.5557 4.16563 87.0434 4.3833 87.4181 4.82139C87.7928 5.25673 87.9802 5.84361 87.9802 6.57927V11.9797H87.013V6.57927C87.013 6.14669 86.9304 5.80228 86.7623 5.54328C86.5722 5.25398 86.3022 5.1107 85.955 5.1107V4.16563Z" fill="#E4007F"/>
<path d="M81.7753 11.3046C81.654 11.5912 81.519 11.8061 81.373 11.9521C81.1801 12.145 80.9349 12.2414 80.6401 12.2414C80.3149 12.2414 80.0477 12.1119 79.8383 11.8474C79.6289 11.5856 79.5242 11.2302 79.5242 10.7839V3.69448H78.5571V10.7839C78.5571 11.5664 78.772 12.1725 79.2046 12.6051C79.5903 12.9908 80.0697 13.1865 80.6373 13.1865C81.6458 13.1865 82.3649 12.5583 82.792 11.3046H81.7753Z" fill="#E4007F"/>
<path d="M16.0586 16.1513C14.5569 16.1513 13.1435 15.4156 11.4793 14.1234C10.8456 14.8095 10.1788 15.2503 9.43484 15.3963C7.27469 15.8262 5.12832 14.7599 2.68437 12.0431C1.11936 10.3045 0.890675 8.80016 0.783219 8.07551C0.526976 6.3755 1.04497 5.68392 1.52715 5.40012C2.57967 4.78294 4.49185 5.47451 6.90824 7.35087C7.67697 7.94601 8.34926 8.49156 9.2034 9.18039C9.66629 9.55511 10.187 9.97667 10.8125 10.4781C11.6088 10.0097 12.3582 9.48622 12.7853 9.13906C13.4824 8.57147 14.1299 7.99561 14.7388 7.41975C14.871 7.1332 15.0061 6.8439 15.1466 6.54632C15.4111 5.97598 15.6866 5.38634 15.9704 4.78018C16.673 3.28681 17.3233 2.26184 18.0176 1.56199C18.8442 0.724385 19.7121 0.371707 20.6792 0.479164C20.9492 0.509472 21.2027 0.58662 21.4397 0.710608C22.01 0.341399 22.5611 0.134752 23.1232 0.151284C23.8864 0.173326 24.6083 0.611418 25.3246 1.49311C26.2449 2.62278 26.829 5.01438 25.9418 7.59609C25.107 10.018 23.3739 11.4783 21.6711 12.3572C20.3706 14.6249 18.7477 15.5479 17.5464 15.9171C17.0339 16.0741 16.5435 16.1513 16.0613 16.1513H16.0586ZM11.8016 13.7542C13.8626 15.3467 15.4965 16.0356 17.4032 15.4514C18.4033 15.1456 19.7176 14.421 20.8583 12.7375C20.0813 13.0626 19.3456 13.2775 18.7395 13.4153C17.9928 13.5861 15.6756 13.9112 12.7605 12.3738C12.4436 12.8918 12.124 13.3547 11.7989 13.7542H11.8016ZM2.9599 11.6161C2.99021 11.6491 3.02052 11.6822 3.05083 11.718C6.09543 15.1015 8.09853 15.1676 9.34116 14.9197C9.96662 14.7957 10.5425 14.4154 11.099 13.8231C10.8097 13.5916 10.5149 13.3409 10.2091 13.0791C9.68833 12.6328 9.26402 12.2525 8.90032 11.9219C7.00743 12.5832 5.28813 12.6107 3.77822 12.0018C3.48065 11.8833 3.20788 11.7538 2.9599 11.6133V11.6161ZM9.41556 11.729C9.73242 12.0156 10.0989 12.338 10.5259 12.7072C10.8345 12.9717 11.1321 13.2196 11.4187 13.4538C11.7273 13.0764 12.0303 12.6355 12.3334 12.1368C11.8264 11.842 11.3002 11.4893 10.7657 11.0705C10.3551 11.2992 9.94733 11.5059 9.57261 11.6629C9.52026 11.6849 9.46515 11.707 9.4128 11.729H9.41556ZM13.014 11.9522C15.7665 13.3987 17.9322 13.0957 18.632 12.9359C19.3787 12.765 20.3403 12.4757 21.3184 11.988C21.4755 11.707 21.627 11.4012 21.7703 11.076C22.6465 9.10048 23.057 6.70062 22.8642 4.65344C22.7126 3.02781 22.2056 1.84855 21.4562 1.30024C20.5525 1.96151 19.5495 3.05812 18.4006 4.31729C17.472 5.33675 16.392 6.51877 15.1438 7.70906C14.3889 9.32642 13.6973 10.7674 13.0112 11.9495L13.014 11.9522ZM3.18308 8.54116C2.73948 8.54116 2.39231 8.64861 2.16087 8.80567C1.87983 8.99578 1.74482 9.27682 1.77788 9.59368C1.80543 9.85819 2.0479 10.7785 3.95732 11.5472C5.28537 12.0817 6.80354 12.079 8.48427 11.5417C8.38783 11.4535 8.29415 11.3681 8.20598 11.2854C7.16999 10.3266 6.69608 9.8885 5.31568 9.15834C4.46429 8.70923 3.74516 8.54116 3.18308 8.54116ZM11.223 10.8033C11.6887 11.1559 12.1433 11.459 12.5841 11.7125C13.1021 10.817 13.6284 9.76175 14.1877 8.58524C13.8351 8.89935 13.4686 9.2107 13.0911 9.51653C12.6255 9.89401 11.9422 10.3679 11.223 10.8005V10.8033ZM21.886 1.01645C22.6713 1.68598 23.1975 2.93689 23.3518 4.6066C23.5502 6.73368 23.1259 9.22447 22.2167 11.2717C22.1726 11.3708 22.1285 11.4673 22.0844 11.561C23.4758 10.7068 24.7984 9.40908 25.4789 7.43629C26.0768 5.69769 26.0878 3.20415 24.9444 1.80171C24.3217 1.03849 23.7238 0.658258 23.1094 0.641726C22.7181 0.630705 22.3131 0.765714 21.886 1.01645ZM3.17206 8.05072C3.8719 8.05072 4.69298 8.2794 5.54437 8.72852C6.98263 9.48898 7.50338 9.9684 8.53937 10.93C8.68265 11.065 8.8397 11.2083 9.00777 11.3626C9.13176 11.3157 9.25575 11.2661 9.38249 11.2138C9.69109 11.0843 10.0217 10.9217 10.3496 10.7426C9.79028 10.2935 9.31637 9.91054 8.89205 9.56613C8.04342 8.8773 7.37113 8.33451 6.60516 7.74212C4.42296 6.04762 2.61549 5.33124 1.76961 5.82719C1.13314 6.19916 1.14416 7.21862 1.26264 8.00663C1.2957 8.22705 1.33979 8.52738 1.43898 8.88557C1.54092 8.70097 1.69247 8.53565 1.88534 8.40339C2.2325 8.16919 2.6706 8.05347 3.1693 8.05347L3.17206 8.05072ZM20.3486 0.953075C18.9434 0.953075 17.7173 2.215 16.4113 4.99234C16.1771 5.49105 15.9511 5.97598 15.7307 6.44989C16.5683 5.60126 17.326 4.76916 18.0396 3.98941C19.15 2.77157 20.0951 1.73558 20.974 1.04951C20.8611 1.01094 20.7426 0.983383 20.6213 0.972362C20.5304 0.96134 20.4395 0.95583 20.3486 0.95583V0.953075Z" fill="url(#paint0_linear_4980_271459)"/>
</g>
<defs>
<linearGradient id="paint0_linear_4980_271459" x1="0.714336" y1="8.14991" x2="26.3799" y2="8.14991" gradientUnits="userSpaceOnUse">
<stop offset="0.49" stop-color="#25A9E3"/>
<stop offset="0.55" stop-color="#5B9BD3"/>
<stop offset="0.6" stop-color="#8590C7"/>
<stop offset="0.65" stop-color="#A388BE"/>
<stop offset="0.69" stop-color="#B683B8"/>
<stop offset="0.72" stop-color="#BD82B7"/>
<stop offset="0.83" stop-color="#DA4693"/>
<stop offset="0.88" stop-color="#E72D84"/>
</linearGradient>
<clipPath id="clip0_4980_271459">
<rect width="87.2657" height="16" fill="white" transform="translate(0.714478 0.151169)"/>
</clipPath>
</defs>
</svg>
