<svg viewBox="0 0 5 8" fill="none" xmlns="http://www.w3.org/2000/svg">
<mask id="path-1-inside-1_17209_29662" fill="white">
<path fill-rule="evenodd" clip-rule="evenodd" d="M4.5 4.32129L1.25909 7.56219C1.09638 7.72491 0.832557 7.72491 0.669838 7.5622C0.50712 7.39948 0.50712 7.13566 0.669839 6.97294L3.32149 4.32129L0.669839 1.66964C0.50712 1.50692 0.50712 1.2431 0.669838 1.08038C0.832557 0.917665 1.09638 0.917664 1.25909 1.08038L4.5 4.32129Z"/>
</mask>
<path d="M4.5 4.32129L5.20711 5.0284L5.91421 4.32129L5.20711 3.61418L4.5 4.32129ZM3.32149 4.32129L4.0286 5.0284L4.7357 4.32129L4.0286 3.61418L3.32149 4.32129ZM-0.0372684 8.2693C0.515974 8.82254 1.41296 8.82254 1.9662 8.2693L0.551987 6.85509C0.779793 6.62728 1.14914 6.62728 1.37695 6.85509L-0.0372684 8.2693ZM-0.0372682 6.26583C-0.590511 6.81908 -0.590511 7.71606 -0.0372684 8.2693L1.37695 6.85509C1.60475 7.08289 1.60475 7.45224 1.37695 7.68005L-0.0372682 6.26583ZM2.61438 3.61418L-0.0372682 6.26583L1.37695 7.68005L4.0286 5.0284L2.61438 3.61418ZM-0.0372682 2.37675L2.61438 5.0284L4.0286 3.61418L1.37695 0.962532L-0.0372682 2.37675ZM-0.0372684 0.373276C-0.590511 0.926519 -0.590511 1.8235 -0.0372682 2.37675L1.37695 0.962532C1.60475 1.19034 1.60475 1.55968 1.37695 1.78749L-0.0372684 0.373276ZM1.9662 0.373276C1.41296 -0.179967 0.515974 -0.179966 -0.0372684 0.373276L1.37695 1.78749C1.14914 2.0153 0.779793 2.0153 0.551987 1.78749L1.9662 0.373276ZM1.9662 8.2693L5.20711 5.0284L3.79289 3.61418L0.551987 6.85509L1.9662 8.2693ZM5.20711 3.61418L1.9662 0.373276L0.551987 1.78749L3.79289 5.0284L5.20711 3.61418Z" fill="#718899" mask="url(#path-1-inside-1_17209_29662)"/>
</svg>
