<svg viewBox="0 0 24 24" fill="none" xmlns="http://www.w3.org/2000/svg">
<path fill-rule="evenodd" clip-rule="evenodd" d="M4.53111 18.2408C4.23768 18.5332 4.23768 19.0072 4.53111 19.2995C4.82454 19.5919 5.30028 19.5919 5.59372 19.2995L11.8758 13.0405L18.3069 19.448C18.6003 19.7403 19.076 19.7403 19.3695 19.448C19.6629 19.1556 19.6629 18.6816 19.3695 18.3892L12.9384 11.9818L19.3557 5.58803C19.6491 5.29568 19.6491 4.82168 19.3557 4.52932C19.0622 4.23697 18.5865 4.23697 18.2931 4.52932L11.8758 10.9231L5.6075 4.67777C5.31406 4.38542 4.83832 4.38542 4.54489 4.67777C4.25146 4.97013 4.25146 5.44413 4.54489 5.73648L10.8132 11.9818L4.53111 18.2408Z" fill="currentColor"/>
</svg>
