<svg viewBox="0 0 78 78" fill="none" xmlns="http://www.w3.org/2000/svg">
<g clip-path="url(#clip0_544_25938)">
<g clip-path="url(#clip1_544_25938)">
<path d="M45.7323 10.1799H55.6963C56.5803 10.1799 57.2963 10.8959 57.2963 11.7799V40.5999H44.1323V11.7799C44.1323 10.8959 44.8483 10.1799 45.7323 10.1799Z" fill="#DADEE2"/>
<path d="M17.4521 11.0399V37.7079H29.6041V16.4679C29.6041 15.9679 29.3921 15.4879 29.0201 15.1519C27.6241 13.8839 23.8001 10.8679 18.4201 10.1839C17.9081 10.1199 17.4521 10.5239 17.4521 11.0399Z" fill="#D9648D"/>
<path d="M13.6001 64.5919H33.4601L31.5441 34.2119H15.0961L13.6001 64.5919Z" fill="#306191"/>
<path d="M64.3199 64.592H37.1079L40.0439 41.104C40.1959 39.904 41.2159 39 42.4239 39H58.9959C60.2079 39 61.2279 39.9 61.3759 41.104L64.3119 64.592H64.3199Z" fill="#419BE0"/>
</g>
</g>
<defs>
<clipPath id="clip0_544_25938">
<rect width="77.75" height="77.75" rx="4" fill="white"/>
</clipPath>
<clipPath id="clip1_544_25938">
<rect width="80" height="80" fill="white" transform="translate(-1 -1)"/>
</clipPath>
</defs>
</svg>
