<svg viewBox="0 0 24 24" fill="none" xmlns="http://www.w3.org/2000/svg">
<mask id="path-1-inside-1_46_2127" fill="white">
<path fill-rule="evenodd" clip-rule="evenodd" d="M12 17L5.51819 10.5182C5.19275 10.1928 5.19275 9.66511 5.51819 9.33968C5.84363 9.01424 6.37126 9.01424 6.6967 9.33968L12 14.643L17.3033 9.33968C17.6287 9.01424 18.1564 9.01424 18.4818 9.33968C18.8072 9.66511 18.8072 10.1928 18.4818 10.5182L12 17Z"/>
</mask>
<path d="M12 17L10.5858 18.4142L12 19.8284L13.4142 18.4142L12 17ZM12 14.643L10.5858 16.0572L12 17.4714L13.4142 16.0572L12 14.643ZM4.10398 7.92546C2.99749 9.03195 2.99749 10.8259 4.10398 11.9324L6.9324 9.10397C7.38801 9.55958 7.38801 10.2983 6.9324 10.7539L4.10398 7.92546ZM8.11091 7.92546C7.00443 6.81898 5.21046 6.81898 4.10398 7.92546L6.9324 10.7539C6.47679 11.2095 5.7381 11.2095 5.28249 10.7539L8.11091 7.92546ZM13.4142 13.2288L8.11091 7.92546L5.28249 10.7539L10.5858 16.0572L13.4142 13.2288ZM15.8891 7.92546L10.5858 13.2288L13.4142 16.0572L18.7175 10.7539L15.8891 7.92546ZM19.896 7.92546C18.7895 6.81898 16.9956 6.81898 15.8891 7.92546L18.7175 10.7539C18.2619 11.2095 17.5232 11.2095 17.0676 10.7539L19.896 7.92546ZM19.896 11.9324C21.0025 10.8259 21.0025 9.03195 19.896 7.92546L17.0676 10.7539C16.612 10.2983 16.612 9.55959 17.0676 9.10398L19.896 11.9324ZM4.10398 11.9324L10.5858 18.4142L13.4142 15.5858L6.9324 9.10397L4.10398 11.9324ZM13.4142 18.4142L19.896 11.9324L17.0676 9.10398L10.5858 15.5858L13.4142 18.4142Z" fill="currentColor" mask="url(#path-1-inside-1_46_2127)"/>
</svg>
