<svg viewBox="0 0 81 80" fill="none" xmlns="http://www.w3.org/2000/svg">
<g clip-path="url(#clip0_1109_50026)">
<path d="M23.0112 14.4511C23.005 12.612 24.4909 11.1161 26.33 11.1099L55.2191 11.0131C57.0582 11.0069 58.554 12.4928 58.5602 14.3319L58.7304 65.0889C58.7365 66.928 57.2506 68.4238 55.4115 68.43L26.5225 68.5269C24.6834 68.533 23.1875 67.0471 23.1813 65.208L23.0112 14.4511Z" fill="#90C6F0"/>
<rect x="26.2847" y="14.1213" width="29.1678" height="50.6309" rx="1.41" transform="rotate(-0.192069 26.2847 14.1213)" fill="#D8E1EB"/>
<mask id="mask0_1109_50026" style="mask-type:alpha" maskUnits="userSpaceOnUse" x="25" y="12" width="22" height="25">
<path d="M25.8206 36.7757L46.8492 13.2292L25.2511 12.7784L25.8206 36.7757Z" fill="white"/>
</mask>
<g mask="url(#mask0_1109_50026)">
<rect x="26.333" y="14.1208" width="29.2745" height="50.6309" rx="3.4123" transform="rotate(-0.192069 26.333 14.1208)" fill="white"/>
</g>
<path d="M32.7568 12.2656L48.7539 12.212L48.7612 14.3999C48.7645 15.3815 47.9714 16.18 46.9897 16.1833L34.5476 16.225C33.5659 16.2283 32.7675 15.4352 32.7642 14.4535L32.7568 12.2656Z" fill="#90C6F0"/>
<rect x="33.9043" y="60.457" width="15.1084" height="1.77746" rx="0.888731" transform="rotate(0.184939 33.9043 60.457)" fill="#306191"/>
</g>
<defs>
<clipPath id="clip0_1109_50026">
<rect x="0.75" width="80" height="80" rx="4" fill="white"/>
</clipPath>
</defs>
</svg>
