<svg viewBox="0 0 80 80" fill="none" xmlns="http://www.w3.org/2000/svg">
<g clip-path="url(#clip0_541_25788)">
<g clip-path="url(#clip1_541_25788)">
<path d="M76 32L56 12H52.768C51.132 17.392 45.988 21.328 39.896 21.328C33.804 21.328 28.664 17.392 27.024 12H24L4 32L17 40L22.016 33.1L20 67.936H60L57.532 33.1L63 40L76 32Z" fill="#DADEE2"/>
<path d="M50.2239 12C48.6759 16.076 44.6359 18.984 39.8959 18.984C35.1559 18.984 31.1119 16.076 29.5679 12H26.5C28.136 17.392 33.8039 22 39.8959 22C45.9879 22 51.86 17.392 53.5 12H50.2239Z" fill="#419BE0"/>
<path d="M58.1599 42.212H21.5039L22.0399 31.896H57.5839L58.1599 42.212Z" fill="#419BE0"/>
</g>
</g>
<defs>
<clipPath id="clip0_541_25788">
<rect width="80" height="80" rx="4" fill="white"/>
</clipPath>
<clipPath id="clip1_541_25788">
<rect width="80" height="80" fill="white"/>
</clipPath>
</defs>
</svg>
