<svg viewBox="0 0 81 80" fill="none" xmlns="http://www.w3.org/2000/svg">
<g clip-path="url(#clip0_1109_50050)">
<g clip-path="url(#clip1_1109_50050)">
<path d="M70.4559 36.04C68.1599 25.872 63.4599 12.004 40.9999 12C18.5399 12 13.8399 25.872 11.5439 36.04C8.79991 48.184 9.00391 50.84 9.00391 56.172C9.00391 59.732 9.61591 65.216 13.0039 66.404C16.3959 67.592 19.3199 65.58 21.0039 62.404C23.9959 56.756 29.7239 47.52 41.0039 47.52C52.2839 47.52 58.0079 56.756 60.9999 62.404C62.6839 65.58 65.6079 67.592 68.9999 66.404C72.3879 65.216 72.9999 59.732 72.9999 56.172C72.9999 50.844 73.2039 48.188 70.4599 36.04H70.4559Z" fill="#90C6F0"/>
<path fill-rule="evenodd" clip-rule="evenodd" d="M61.3799 27.6064C61.3799 25.6731 59.8123 24.1055 57.8789 24.1055C55.9456 24.1055 54.378 25.6731 54.378 27.6064C54.378 29.5398 55.9456 31.1073 57.8789 31.1073C59.8123 31.1073 61.3799 29.5398 61.3799 27.6064ZM54.3818 34.6045C54.3818 32.6712 52.8142 31.1036 50.8808 31.1036C48.9475 31.1036 47.3799 32.6712 47.3799 34.6045C47.3799 36.5379 48.9475 38.1055 50.8808 38.1055C52.8142 38.1055 54.3818 36.5379 54.3818 34.6045Z" fill="white"/>
<path fill-rule="evenodd" clip-rule="evenodd" d="M35.3343 30.0501H30.2838V24.8828H25.152V30.0501H19.8643V35.182H25.152V40.3528H30.2838V35.182H35.3343V30.0501Z" fill="#306191"/>
<path d="M41.4 42.3547C42.1732 42.3547 42.8 41.7279 42.8 40.9547C42.8 40.1815 42.1732 39.5547 41.4 39.5547C40.6268 39.5547 40 40.1815 40 40.9547C40 41.7279 40.6268 42.3547 41.4 42.3547Z" fill="#D9648D"/>
</g>
</g>
<defs>
<clipPath id="clip0_1109_50050">
<rect x="0.75" width="80" height="80" rx="4" fill="white"/>
</clipPath>
<clipPath id="clip1_1109_50050">
<rect width="80" height="80" fill="white" transform="translate(1)"/>
</clipPath>
</defs>
</svg>
