<svg viewBox="0 0 81 80" fill="none" xmlns="http://www.w3.org/2000/svg">
<g clip-path="url(#clip0_1109_50018)">
<g clip-path="url(#clip1_1109_50018)">
<path fill-rule="evenodd" clip-rule="evenodd" d="M17.2638 32.6199C17.7518 30.8839 19.6878 29.9759 21.3878 30.5719C23.0878 31.1679 27.8438 29.2639 27.2038 26.7999C26.0558 22.3879 28.4398 17.9359 34.0278 18.8359C40.9678 19.9559 38.5998 27.1959 43.2878 27.8079C49.9918 28.6839 52.5078 31.4559 51.7038 38.0159C50.8998 44.5759 38.3918 46.5959 38.3918 46.5959L31.9798 44.5879C31.9798 44.5879 15.5918 38.5239 17.2598 32.6199H17.2638Z" fill="#90C6F0"/>
<path fill-rule="evenodd" clip-rule="evenodd" d="M45.2998 44.32C51.7078 46.808 59.1558 44.352 62.7438 38.232C66.3318 32.108 64.8318 24.412 59.5238 20.04L45.2998 44.324V44.32Z" fill="#419BE0"/>
<path d="M74.088 41.12C74.088 45.188 70.788 48.488 66.72 48.488C62.652 48.488 59.3521 45.188 59.3521 41.12C59.3521 37.052 62.652 33.752 66.72 33.752C70.788 33.752 74.088 37.052 74.088 41.12Z" fill="#D9648D"/>
<path fill-rule="evenodd" clip-rule="evenodd" d="M37.9639 40.4409C37.4519 40.2809 37.1719 39.7209 37.3639 39.2169C37.9279 37.7369 38.1639 36.2969 37.7799 35.1049C37.0599 32.8809 34.4679 27.9289 29.1039 29.1889C25.5759 30.0209 27.3919 25.8289 22.6439 22.5929C19.6359 20.5409 15.8599 21.4009 14.2919 22.4089C10.5399 24.8209 11.8119 28.7649 12.8119 31.9689C13.7639 35.0209 9.15993 32.5049 8.25993 36.2569C6.20393 44.8329 17.2199 42.7769 17.5599 44.6289C19.5959 55.7889 31.4679 48.0369 31.4679 48.0369C31.4679 48.0369 31.3439 48.1929 31.6599 47.8329C36.1519 47.9449 40.0439 48.3169 40.5879 46.5929C41.6759 43.1209 39.8519 41.0329 37.9719 40.4369L37.9639 40.4409Z" fill="#306191"/>
<path fill-rule="evenodd" clip-rule="evenodd" d="M6.06424 41.364C5.52424 41.364 5.22424 41.848 5.30024 42.356C7.28424 55.852 19.5802 66.644 41.0042 66.644C62.4282 66.644 74.8642 55.852 76.7282 42.348C76.7962 41.84 76.4922 41.364 75.9602 41.364H6.06424Z" fill="#DADEE2"/>
<path fill-rule="evenodd" clip-rule="evenodd" d="M50.0278 36.3039C52.6198 37.3119 55.6278 36.3159 57.0798 33.8439C58.5278 31.3679 57.9238 28.2559 55.7798 26.4919L50.0318 36.3079L50.0278 36.3039Z" fill="#306191"/>
</g>
</g>
<defs>
<clipPath id="clip0_1109_50018">
<rect x="0.75" width="80" height="80" rx="4" fill="white"/>
</clipPath>
<clipPath id="clip1_1109_50018">
<rect width="80" height="80" fill="white" transform="translate(1)"/>
</clipPath>
</defs>
</svg>
