<svg viewBox="0 0 81 80" fill="none" xmlns="http://www.w3.org/2000/svg">
<g clip-path="url(#clip0_571_27635)">
<g clip-path="url(#clip1_571_27635)">
<path d="M32.7717 21.7969V37.5529L14.7637 36.2769V21.7969C14.7637 16.8249 18.7957 12.7969 23.7637 12.7969C26.2517 12.7969 28.5037 13.8049 30.1317 15.4329C31.7597 17.0609 32.7677 19.3169 32.7677 21.7969H32.7717Z" fill="#D9648D"/>
<path d="M32.7721 37.5533V49.4333C32.7721 54.4093 28.7401 58.4373 23.7681 58.4373C18.7961 58.4373 14.7681 54.4053 14.7681 49.4333V36.2773L32.7761 37.5533H32.7721Z" fill="#DADEE2"/>
<path d="M56.5439 34.264L46.0039 44.804L59.6399 56.636L69.2799 46.996C72.7959 43.48 72.7959 37.78 69.2799 34.264C67.5199 32.504 65.2159 31.624 62.9119 31.624C60.6079 31.624 58.3039 32.504 56.5479 34.26L56.5439 34.264Z" fill="#DADEE2"/>
<path d="M46.0042 44.804L37.0042 53.804C33.4882 57.32 33.4882 63.024 37.0042 66.54C40.5202 70.056 46.2202 70.056 49.7362 66.54L59.6402 56.636L46.0042 44.804Z" fill="#419BE0"/>
</g>
</g>
<defs>
<clipPath id="clip0_571_27635">
<rect x="0.75" width="80" height="80" rx="4" fill="white"/>
</clipPath>
<clipPath id="clip1_571_27635">
<rect width="80" height="80" fill="white" transform="translate(1)"/>
</clipPath>
</defs>
</svg>
