<svg viewBox="0 0 16 16" fill="none" xmlns="http://www.w3.org/2000/svg">
<g clip-path="url(#clip0_342_20568)">
<path fill-rule="evenodd" clip-rule="evenodd" d="M7.9954 1C4.13195 1 1 4.13195 1 7.9954C1 11.8589 4.13195 14.9908 7.9954 14.9908C11.8589 14.9908 14.9908 11.8589 14.9908 7.9954C14.9908 4.13195 11.8589 1 7.9954 1ZM0 7.9954C0 3.57966 3.57966 0 7.9954 0C12.4111 0 15.9908 3.57966 15.9908 7.9954C15.9908 12.4111 12.4111 15.9908 7.9954 15.9908C3.57966 15.9908 0 12.4111 0 7.9954ZM7.42056 4.66411C7.42056 4.34654 7.67799 4.08911 7.99555 4.08911H8.00398C8.32154 4.08911 8.57898 4.34654 8.57898 4.66411C8.57898 4.98167 8.32154 5.23911 8.00398 5.23911H7.99555C7.67799 5.23911 7.42056 4.98167 7.42056 4.66411ZM8.53498 7.02596C8.53498 6.74982 8.31112 6.52596 8.03498 6.52596C7.75883 6.52596 7.53498 6.74982 7.53498 7.02596V12.0719C7.53498 12.3481 7.75883 12.5719 8.03498 12.5719C8.31112 12.5719 8.53498 12.3481 8.53498 12.0719V7.02596Z" fill="currentColor"/>
</g>
<defs>
<clipPath id="clip0_342_20568">
<rect width="16" height="16" fill="white"/>
</clipPath>
</defs>
</svg>
