<svg viewBox="0 0 81 80" fill="none" xmlns="http://www.w3.org/2000/svg">
<g clip-path="url(#clip0_1109_50034)">
<g clip-path="url(#clip1_1109_50034)">
<path d="M24.5751 69.0442H20V55.9922H26.23L24.5751 69.0442Z" fill="#306191"/>
<path d="M56.8829 69.0442H61.458V55.9922H55.228L56.8829 69.0442Z" fill="#306191"/>
<path d="M25.6893 12H55.8107C59.6414 12 62.75 15.5763 62.75 19.9834L60.75 46H20.75L18.75 19.9834C18.75 15.5763 21.8586 12 25.6893 12Z" fill="#90C6F0"/>
<path d="M57.9743 46.232H39.9023V31.148C39.9023 31.148 42.8103 30 48.9383 30C55.0663 30 57.9743 31.148 57.9743 31.148V46.232Z" fill="#419BE0"/>
<path d="M47.086 46.2452H33.082V35.4452C33.082 35.4452 35.338 34.4492 40.086 34.4492C44.834 34.4492 47.09 35.4452 47.09 35.4452V46.2452H47.086Z" fill="white"/>
<path fill-rule="evenodd" clip-rule="evenodd" d="M16.3216 29.2148C19.4336 29.2148 21.9576 31.7388 21.9576 34.8508V46H59.5378V34.8508C59.5378 31.7388 62.0618 29.2148 65.1738 29.2148H65.1778C68.2898 29.2148 70.8138 31.7388 70.8138 34.8508V50.6428C70.8138 50.8417 70.7917 51.0355 70.7498 51.2219V56.7168C70.7498 58.528 69.0693 60 67.0018 60H14.4978C12.4302 60 10.7498 58.528 10.7498 56.7168V51.2395C10.7052 51.0477 10.6816 50.848 10.6816 50.6428V34.8508C10.6816 31.7388 13.2056 29.2148 16.3176 29.2148H16.3216Z" fill="#DADEE2"/>
</g>
</g>
<defs>
<clipPath id="clip0_1109_50034">
<rect x="0.75" width="80" height="80" rx="4" fill="white"/>
</clipPath>
<clipPath id="clip1_1109_50034">
<rect width="80" height="80" fill="white" transform="translate(0.75)"/>
</clipPath>
</defs>
</svg>
