<svg viewBox="0 0 67 57" fill="none" xmlns="http://www.w3.org/2000/svg">
<path fill-rule="evenodd" clip-rule="evenodd" d="M58.6739 20.9755C58.4614 20.6006 58.4343 20.1502 58.5839 19.746C59.1708 18.1608 59.4914 16.4465 59.4914 14.6572C59.4914 6.56225 52.9292 0 44.8342 0C36.7393 0 30.177 6.56225 30.177 14.6572C30.177 17.2473 30.8489 19.6806 32.0278 21.7921C32.263 22.2134 32.0142 22.7552 31.5337 22.7997C21.3718 23.7404 7.63741 19.4394 3.35698 17.9853C2.62523 17.7367 1.82704 18.1363 1.61448 18.8793C-4.04754 38.6715 5.83738 56.9998 33.4822 56.9998C52.7519 56.9998 61.5367 46.8476 62.67 35.8494C63.1731 30.9677 61.1771 25.3928 58.6739 20.9755Z" fill="#DADEE2"/>
<ellipse cx="59.7643" cy="15.7406" rx="6.78574" ry="3.25715" fill="#D9648D"/>
<path d="M46.4804 33.3095C44.2658 29.0528 33.1184 30.4533 27.8215 31.6856L19.2204 32.6303C20.58 36.1353 25.5075 43.4221 34.3412 44.5296C45.3834 45.9139 49.2486 38.6304 46.4804 33.3095Z" fill="#419BE0"/>
<circle cx="46.4645" cy="11.9438" r="1.62858" fill="#306191"/>
</svg>
