<svg viewBox="0 0 81 80" fill="none" xmlns="http://www.w3.org/2000/svg">
<g clip-path="url(#clip0_1109_50042)">
<g clip-path="url(#clip1_1109_50042)">
<path d="M39.3975 20.4215L37.3206 12.1439L45.3864 12.078L43.7332 20.6339L39.3975 20.4215Z" fill="#306191"/>
<path d="M69.0214 32H11.9786C10.3336 32 9 33.3422 9 34.9979V35.0021C9 36.6578 10.3336 38 11.9786 38H69.0214C70.6664 38 72 36.6578 72 35.0021V34.9979C72 33.3422 70.6664 32 69.0214 32Z" fill="#306191"/>
<path d="M15 32H67V58.4936C67 64.2915 62.2444 69 56.3884 69H25.6159C19.7599 69 15.0042 64.2915 15.0042 58.4936V32H15Z" fill="#90C6F0"/>
<path d="M67.4531 29.579L15.1098 29.5838C15.1002 23.5605 27.2951 18.6764 33.3612 18.6773L49.1575 18.6748C55.2235 18.6756 67.4392 23.5551 67.4489 29.5784L67.4531 29.579Z" fill="#90C6F0"/>
</g>
</g>
<defs>
<clipPath id="clip0_1109_50042">
<rect x="0.75" width="80" height="80" rx="4" fill="white"/>
</clipPath>
<clipPath id="clip1_1109_50042">
<rect width="80" height="80" fill="white" transform="translate(1)"/>
</clipPath>
</defs>
</svg>
