<svg viewBox="0 0 24 24" ill="none" xmlns="http://www.w3.org/2000/svg">
<mask id="path-1-inside-1_46_2123" fill="white">
<path fill-rule="evenodd" clip-rule="evenodd" d="M7 12L13.4818 5.51819C13.8072 5.19275 14.3349 5.19275 14.6603 5.51819C14.9858 5.84363 14.9858 6.37126 14.6603 6.6967L9.35702 12L14.6603 17.3033C14.9858 17.6287 14.9858 18.1564 14.6603 18.4818C14.3349 18.8072 13.8072 18.8072 13.4818 18.4818L7 12Z"/>
</mask>
<path d="M7 12L5.58579 10.5858L4.17157 12L5.58579 13.4142L7 12ZM9.35702 12L7.94281 10.5858L6.5286 12L7.94281 13.4142L9.35702 12ZM16.0745 4.10398C14.9681 2.99749 13.1741 2.99749 12.0676 4.10398L14.896 6.9324C14.4404 7.38801 13.7017 7.38801 13.2461 6.9324L16.0745 4.10398ZM16.0745 8.11091C17.181 7.00443 17.181 5.21046 16.0745 4.10398L13.2461 6.9324C12.7905 6.47679 12.7905 5.7381 13.2461 5.28249L16.0745 8.11091ZM10.7712 13.4142L16.0745 8.11091L13.2461 5.28249L7.94281 10.5858L10.7712 13.4142ZM16.0745 15.8891L10.7712 10.5858L7.94281 13.4142L13.2461 18.7175L16.0745 15.8891ZM16.0745 19.896C17.181 18.7895 17.181 16.9956 16.0745 15.8891L13.2461 18.7175C12.7905 18.2619 12.7905 17.5232 13.2461 17.0676L16.0745 19.896ZM12.0676 19.896C13.1741 21.0025 14.9681 21.0025 16.0745 19.896L13.2461 17.0676C13.7017 16.612 14.4404 16.612 14.896 17.0676L12.0676 19.896ZM12.0676 4.10398L5.58579 10.5858L8.41421 13.4142L14.896 6.9324L12.0676 4.10398ZM5.58579 13.4142L12.0676 19.896L14.896 17.0676L8.41421 10.5858L5.58579 13.4142Z" fill="currentColor" mask="url(#path-1-inside-1_46_2123)"/>
</svg>
