<svg viewBox="0 0 24 24" fill="none" xmlns="http://www.w3.org/2000/svg">
<mask id="path-1-inside-1_46_2121" fill="white">
<path fill-rule="evenodd" clip-rule="evenodd" d="M17 12L10.5182 18.4818C10.1928 18.8072 9.66511 18.8072 9.33968 18.4818C9.01424 18.1564 9.01424 17.6287 9.33968 17.3033L14.643 12L9.33968 6.6967C9.01424 6.37126 9.01424 5.84363 9.33968 5.51819C9.66511 5.19275 10.1928 5.19275 10.5182 5.51819L17 12Z"/>
</mask>
<path d="M17 12L18.4142 13.4142L19.8284 12L18.4142 10.5858L17 12ZM14.643 12L16.0572 13.4142L17.4714 12L16.0572 10.5858L14.643 12ZM7.92546 19.896C9.03195 21.0025 10.8259 21.0025 11.9324 19.896L9.10397 17.0676C9.55959 16.612 10.2983 16.612 10.7539 17.0676L7.92546 19.896ZM7.92546 15.8891C6.81898 16.9956 6.81898 18.7895 7.92546 19.896L10.7539 17.0676C11.2095 17.5232 11.2095 18.2619 10.7539 18.7175L7.92546 15.8891ZM13.2288 10.5858L7.92546 15.8891L10.7539 18.7175L16.0572 13.4142L13.2288 10.5858ZM7.92546 8.11091L13.2288 13.4142L16.0572 10.5858L10.7539 5.28249L7.92546 8.11091ZM7.92546 4.10397C6.81898 5.21046 6.81898 7.00443 7.92546 8.11091L10.7539 5.28249C11.2095 5.7381 11.2095 6.47679 10.7539 6.9324L7.92546 4.10397ZM11.9324 4.10397C10.8259 2.99749 9.03195 2.99749 7.92546 4.10397L10.7539 6.9324C10.2983 7.38801 9.55959 7.38801 9.10397 6.9324L11.9324 4.10397ZM11.9324 19.896L18.4142 13.4142L15.5858 10.5858L9.10397 17.0676L11.9324 19.896ZM18.4142 10.5858L11.9324 4.10397L9.10397 6.9324L15.5858 13.4142L18.4142 10.5858Z" fill="currentColor" mask="url(#path-1-inside-1_46_2121)"/>
</svg>
