<svg viewBox="0 0 24 24" fill="none" xmlns="http://www.w3.org/2000/svg">
<path fill-rule="evenodd" clip-rule="evenodd" d="M17.0966 9.79831C17.0966 13.8291 13.8291 17.0966 9.79831 17.0966C5.76757 17.0966 2.5 13.8291 2.5 9.79831C2.5 5.76757 5.76757 2.5 9.79831 2.5C13.8291 2.5 17.0966 5.76757 17.0966 9.79831ZM15.0754 16.8391C13.6052 17.9427 11.7781 18.5966 9.79831 18.5966C4.93914 18.5966 1 14.6575 1 9.79831C1 4.93914 4.93914 1 9.79831 1C14.6575 1 18.5966 4.93914 18.5966 9.79831C18.5966 12.1369 17.6842 14.2624 16.1959 15.8383L21.7662 21.4086C22.0591 21.7015 22.0591 22.1764 21.7662 22.4693C21.4734 22.7621 20.9985 22.7621 20.7056 22.4693L15.0754 16.8391Z" fill="currentColor"/>
</svg>
