<svg viewBox="0 0 24 24" fill="none" xmlns="http://www.w3.org/2000/svg">
<path fill-rule="evenodd" clip-rule="evenodd" d="M17.5 8C17.5 8.82843 16.8284 9.5 16 9.5C15.1716 9.5 14.5 8.82843 14.5 8C14.5 7.17157 15.1716 6.5 16 6.5C16.8284 6.5 17.5 7.17157 17.5 8ZM18.9055 8.75C18.5725 10.0439 17.3979 11 16 11C14.6021 11 13.4275 10.0439 13.0945 8.75H2.75C2.33579 8.75 2 8.41421 2 8C2 7.58579 2.33579 7.25 2.75 7.25H13.0945C13.4275 5.95608 14.6021 5 16 5C17.3979 5 18.5725 5.95608 18.9055 7.25H21.25C21.6642 7.25 22 7.58579 22 8C22 8.41421 21.6642 8.75 21.25 8.75H18.9055Z" fill="currentColor"/>
<path fill-rule="evenodd" clip-rule="evenodd" d="M9.5 16C9.5 16.8284 8.82843 17.5 8 17.5C7.17157 17.5 6.5 16.8284 6.5 16C6.5 15.1716 7.17157 14.5 8 14.5C8.82843 14.5 9.5 15.1716 9.5 16ZM10.9055 16.75C10.5725 18.0439 9.39788 19 8 19C6.60212 19 5.42755 18.0439 5.09451 16.75H2.75C2.33579 16.75 2 16.4142 2 16C2 15.5858 2.33579 15.25 2.75 15.25H5.09451C5.42755 13.9561 6.60212 13 8 13C9.39788 13 10.5725 13.9561 10.9055 15.25H21.25C21.6642 15.25 22 15.5858 22 16C22 16.4142 21.6642 16.75 21.25 16.75H10.9055Z" fill="currentColor"/>
</svg>
