<svg viewBox="0 0 32 32" fill="none" xmlns="http://www.w3.org/2000/svg">
<path d="M6.52724 27V18.0513C4.4109 18.0513 3.14697 16.575 3 15.8231L6.52724 5H25.4862L28.5 14.5C28.7931 15.8231 29 17.5 26.368 18.0788V27H18.3135V22H14.1408V27H6.52724Z" fill="currentColor"/>
<path fill-rule="evenodd" clip-rule="evenodd" d="M5.81416 4.76761C5.91476 4.45891 6.20257 4.25 6.52724 4.25H25.4862C25.813 4.25 26.1022 4.46166 26.2011 4.77321L29.2149 14.2732C29.2216 14.2945 29.2274 14.316 29.2323 14.3378C29.3767 14.9898 29.5595 15.9409 29.2351 16.8265C28.9292 17.6618 28.2418 18.287 27.118 18.6525V27C27.118 27.4142 26.7822 27.75 26.368 27.75H18.3135C17.8993 27.75 17.5635 27.4142 17.5635 27V22.75H14.8908V27C14.8908 27.4142 14.555 27.75 14.1408 27.75H6.52724C6.11303 27.75 5.77724 27.4142 5.77724 27V18.7467C4.87792 18.6134 4.13272 18.2504 3.56635 17.8125C2.87983 17.2817 2.38388 16.5807 2.26393 15.967C2.23943 15.8417 2.24734 15.7121 2.28691 15.5907L5.81416 4.76761ZM7.07164 5.75L3.78895 15.8227C3.88141 16.0153 4.09564 16.3257 4.48386 16.6258C4.96461 16.9975 5.65108 17.3013 6.52724 17.3013C6.94146 17.3013 7.27724 17.6371 7.27724 18.0513V26.25H13.3908V22C13.3908 21.5858 13.7266 21.25 14.1408 21.25H18.3135C18.7277 21.25 19.0635 21.5858 19.0635 22V26.25H25.618V18.0788C25.618 17.7267 25.863 17.4219 26.2069 17.3463C27.3621 17.0923 27.7016 16.652 27.8267 16.3106C27.981 15.8891 27.9185 15.3509 27.7748 14.6944L24.9373 5.75H7.07164Z" fill="currentColor"/>
<path fill-rule="evenodd" clip-rule="evenodd" d="M29.838 13.2679C30.2424 13.1783 30.6429 13.4336 30.7325 13.838C30.8489 14.3635 30.7465 14.939 30.5509 15.4569C30.3501 15.9881 30.0255 16.529 29.6066 17.015C28.7746 17.9806 27.4939 18.8123 25.9353 18.8289C24.7922 18.8411 23.8086 18.2614 23.1086 17.6267C22.8694 17.4099 22.6499 17.1745 22.4567 16.9343C22.3127 17.1503 22.148 17.3657 21.9621 17.5694C21.3594 18.2301 20.4748 18.829 19.3137 18.829C18.1688 18.829 17.2229 18.2453 16.5433 17.6131C16.3292 17.414 16.1338 17.2032 15.9586 16.9914C15.8418 17.1836 15.7058 17.3738 15.5486 17.5552C14.9352 18.2629 14.0015 18.829 12.7001 18.829C11.408 18.829 10.4205 18.2721 9.73054 17.602C9.5638 17.44 9.41308 17.2703 9.27792 17.0983C9.17695 17.2539 9.06298 17.4075 8.93501 17.5552C8.32164 18.2629 7.38796 18.829 6.08654 18.829C3.5619 18.829 1.86086 16.9538 1.28869 15.2373C1.15771 14.8444 1.37008 14.4196 1.76303 14.2886C2.15599 14.1577 2.58073 14.37 2.71172 14.763C3.13955 16.0465 4.37849 17.329 6.08654 17.329C6.90147 17.329 7.43747 16.9928 7.80145 16.5728C8.18501 16.1302 8.37778 15.5885 8.43264 15.2517C8.48827 14.9102 8.77036 14.6511 9.11539 14.6245C9.46041 14.598 9.7788 14.811 9.88599 15.14C9.99958 15.4886 10.2921 16.0563 10.7757 16.526C11.2468 16.9836 11.8759 17.329 12.7001 17.329C13.5151 17.329 14.0511 16.9928 14.415 16.5728C14.7986 16.1302 14.9914 15.5885 15.0462 15.2517C15.0987 14.9294 15.3538 14.6781 15.677 14.6304C16.0001 14.5827 16.3169 14.7496 16.4603 15.043C16.6464 15.4239 17.0354 16.0224 17.5649 16.5148C18.0977 17.0104 18.695 17.329 19.3137 17.329C19.9163 17.329 20.4279 17.0256 20.8539 16.5585C21.2847 16.0863 21.5671 15.5079 21.6869 15.14C21.7875 14.8313 22.0753 14.6223 22.4 14.6223C22.7247 14.6223 23.0126 14.8313 23.1132 15.14C23.2099 15.437 23.5619 16.013 24.1161 16.5154C24.6651 17.0132 25.2982 17.3356 25.9193 17.329C26.9336 17.3182 27.8359 16.772 28.4704 16.0358C28.7848 15.671 29.0142 15.28 29.1477 14.9267C29.2862 14.5601 29.2981 14.2984 29.268 14.1624C29.1784 13.7579 29.4336 13.3575 29.838 13.2679Z" fill="white"/>
</svg>
