<svg viewBox="0 0 32 32" fill="none" xmlns="http://www.w3.org/2000/svg">
<path d="M6.52724 18.0513V27H14.1408V22H18.3135V27H26.368V18.0788M28.5 14.5C28.7931 15.8231 28.5 18.0513 25.9271 18.0788C24.1629 18.0977 22.6938 16.2744 22.3998 15.3722C22.1059 16.2744 21.0771 18.0788 19.3135 18.0788C17.5499 18.0788 16.2272 16.2744 15.7863 15.3722C15.6393 16.2744 14.8163 18.0788 12.6999 18.0788C10.5836 18.0788 9.46661 16.2744 9.17268 15.3722C9.02571 16.2744 8.20269 18.0788 6.08634 18.0788C3.96999 18.0788 3.14697 16.575 3 15.8231L6.52724 5H25.4862L28.5 14.5Z" stroke="currentColor" stroke-width="1.5" stroke-linecap="round" stroke-linejoin="round"/>
</svg>
