<svg viewBox="0 0 24 24" fill="none" xmlns="http://www.w3.org/2000/svg">
<path d="M23 6.1308C22.1762 6.49822 21.3024 6.7394 20.4076 6.84631C21.3396 6.28394 22.0552 5.39339 22.3922 4.33232C21.5062 4.86163 20.5369 5.23457 19.5261 5.43501C18.7027 4.55191 17.5297 4 16.2315 4C13.7388 4 11.7178 6.03459 11.7178 8.544C11.7178 8.9002 11.7577 9.24696 11.8347 9.57963C8.08348 9.39007 4.7577 7.58104 2.53149 4.8318C2.14305 5.50293 1.92048 6.28359 1.92048 7.11625C1.92048 8.69281 2.71738 10.0836 3.92841 10.8985C3.21164 10.8759 2.51065 10.681 1.88395 10.3301C1.8837 10.3491 1.8837 10.3682 1.8837 10.3873C1.8837 12.5889 3.43951 14.4256 5.50424 14.843C4.83959 15.025 4.14242 15.0517 3.46598 14.9209C4.0403 16.7262 5.70723 18.0399 7.68224 18.0767C6.13752 19.2954 4.19129 20.0219 2.07671 20.0219C1.71234 20.0219 1.35312 20.0004 1 19.9584C2.99745 21.2477 5.36992 22 7.91883 22C16.221 22 20.7608 15.0758 20.7608 9.07098C20.7608 8.87389 20.7565 8.67793 20.7478 8.48309C21.6314 7.83997 22.3941 7.04342 23 6.1308Z" fill="currentColor"/>
</svg>
