<svg viewBox="0 0 24 24" fill="none" xmlns="http://www.w3.org/2000/svg">
<g clip-path="url(#clip0_75_2450)">
<path d="M20.9995 12C20.9995 7.02947 16.97 3 11.9995 3C7.02898 3 2.99951 7.0294 2.99951 12C2.99951 16.4921 6.2907 20.2155 10.5933 20.8907V14.6016H8.30811V12H10.5933V10.0172C10.5933 7.76156 11.9369 6.51563 13.9927 6.51563C14.9774 6.51563 16.0073 6.69141 16.0073 6.69141V8.90625H14.8725C13.7544 8.90625 13.4058 9.60002 13.4058 10.3118V12H15.9019L15.5028 14.6016H13.4058V20.8907C17.7083 20.2155 20.9995 16.4922 20.9995 12Z" fill="currentColor"/>
<path d="M15.5028 14.6016L15.9019 12H13.4058V10.3118C13.4058 9.59995 13.7544 8.90625 14.8725 8.90625H16.0073V6.69141C16.0073 6.69141 14.9774 6.51562 13.9927 6.51562C11.9369 6.51562 10.5933 7.76156 10.5933 10.0172V12H8.30811V14.6016H10.5933V20.8907C11.0585 20.9636 11.5286 21.0001 11.9995 21C12.4704 21.0001 12.9406 20.9636 13.4058 20.8907V14.6016H15.5028Z" fill="white"/>
</g>
<defs>
<clipPath id="clip0_75_2450">
<rect width="18" height="18" fill="white" transform="translate(3 3)"/>
</clipPath>
</defs>
</svg>
