<svg viewBox="0 0 24 24" fill="none" xmlns="http://www.w3.org/2000/svg">
<g clip-path="url(#clip0_2300_72250)">
<path d="M21.9995 11.0688C21.9995 6.61967 17.5136 3 11.9995 3C6.4854 3 1.99951 6.61967 1.99951 11.0688C1.99951 15.0575 5.55748 18.3976 10.363 19.0294C10.6882 19.0993 11.1316 19.2429 11.244 19.5197C11.3453 19.7713 11.3097 20.1646 11.2769 20.419C11.2769 20.419 11.1597 21.1207 11.1344 21.2698C11.0903 21.5215 10.9338 22.253 12.0004 21.8057C13.068 21.3584 17.7592 18.4339 19.8569 16.0332C21.3059 14.4527 22.0004 12.8497 22.0004 11.0688H21.9995Z" fill="currentColor"/>
<path d="M18.6741 13.6383H15.865C15.7591 13.6383 15.6738 13.5535 15.6738 13.4482V13.4454V9.11372V9.10906C15.6738 9.00375 15.7591 8.91895 15.865 8.91895H18.6741C18.7791 8.91895 18.8653 9.00468 18.8653 9.10906V9.81454C18.8653 9.91985 18.78 10.0047 18.6741 10.0047H16.7648V10.7372H18.6741C18.7791 10.7372 18.8653 10.8229 18.8653 10.9273V11.6328C18.8653 11.7381 18.78 11.8229 18.6741 11.8229H16.7648V12.5554H18.6741C18.7791 12.5554 18.8653 12.6411 18.8653 12.7455V13.451C18.8653 13.5563 18.78 13.6411 18.6741 13.6411V13.6383Z" fill="white"/>
<path d="M8.28247 13.6383C8.38744 13.6383 8.47368 13.5535 8.47368 13.4482V12.7427C8.47368 12.6383 8.38744 12.5526 8.28247 12.5526H6.3732V9.10809C6.3732 9.00371 6.28697 8.91797 6.18199 8.91797H5.47246C5.36654 8.91797 5.28125 9.00278 5.28125 9.10809V13.4444V13.4482C5.28125 13.5535 5.36654 13.6383 5.47246 13.6383H8.28153H8.28247Z" fill="white"/>
<path d="M9.97353 8.91895H9.26494C9.15934 8.91895 9.07373 9.00406 9.07373 9.10906V13.4482C9.07373 13.5532 9.15934 13.6383 9.26494 13.6383H9.97353C10.0791 13.6383 10.1647 13.5532 10.1647 13.4482V9.10906C10.1647 9.00406 10.0791 8.91895 9.97353 8.91895Z" fill="white"/>
<path d="M14.8031 8.91895H14.0935C13.9876 8.91895 13.9023 9.00375 13.9023 9.10906V11.6859L11.9059 9.00468C11.9012 8.99816 11.8956 8.99164 11.8909 8.98511C11.8909 8.98511 11.8909 8.98511 11.89 8.98418C11.8862 8.98045 11.8825 8.97579 11.8787 8.97207C11.8778 8.97113 11.8759 8.9702 11.875 8.96927C11.8712 8.96647 11.8684 8.96368 11.8647 8.96088C11.8628 8.95995 11.8609 8.95809 11.859 8.95716C11.8562 8.95436 11.8525 8.9525 11.8487 8.95063C11.8469 8.9497 11.845 8.94784 11.8431 8.9469C11.8394 8.94504 11.8365 8.94318 11.8328 8.94131C11.8309 8.94038 11.829 8.93945 11.8272 8.93852C11.8234 8.93665 11.8197 8.93479 11.8159 8.93386C11.814 8.93386 11.8122 8.93199 11.8094 8.93199C11.8056 8.93106 11.8019 8.9292 11.7981 8.92826C11.7962 8.92826 11.7934 8.92733 11.7916 8.9264C11.7878 8.9264 11.7841 8.92454 11.7803 8.92361C11.7775 8.92361 11.7747 8.92361 11.7719 8.92267C11.7681 8.92267 11.7653 8.92174 11.7616 8.92174C11.7578 8.92174 11.755 8.92174 11.7512 8.92174C11.7494 8.92174 11.7466 8.92174 11.7447 8.92174H11.0398C10.9349 8.92174 10.8486 9.00655 10.8486 9.11186V13.451C10.8486 13.5554 10.9339 13.6411 11.0398 13.6411H11.7494C11.8553 13.6411 11.9406 13.5563 11.9406 13.451V10.8742L13.9398 13.5591C13.9539 13.5787 13.9708 13.5945 13.9895 13.6066C13.9895 13.6066 13.9914 13.6076 13.9914 13.6085C13.9951 13.6113 13.9989 13.6132 14.0036 13.6159C14.0054 13.6169 14.0073 13.6178 14.0092 13.6187C14.012 13.6206 14.0158 13.6215 14.0186 13.6234C14.0214 13.6253 14.0251 13.6262 14.0279 13.6271C14.0298 13.6271 14.0317 13.629 14.0336 13.629C14.0382 13.6309 14.042 13.6318 14.0467 13.6327C14.0467 13.6327 14.0486 13.6327 14.0495 13.6327C14.0654 13.6364 14.0823 13.6392 14.0992 13.6392H14.804C14.909 13.6392 14.9952 13.5544 14.9952 13.4491V9.10999C14.9952 9.00562 14.9099 8.91988 14.804 8.91988L14.8031 8.91895Z" fill="white"/>
</g>
<defs>
<clipPath id="clip0_2300_72250">
<rect width="20" height="18.9474" fill="white" transform="translate(2 3)"/>
</clipPath>
</defs>
</svg>
