<svg viewBox="0 0 24 24" fill="none" xmlns="http://www.w3.org/2000/svg">
<g clip-path="url(#clip0_2300_72251)">
<path d="M15.0654 12.5706C14.401 11.8581 13.4778 11.4576 12.2934 11.371C13.3472 11.095 14.1128 10.6916 14.5968 10.153C15.0786 9.62151 15.3177 8.89919 15.3177 7.99102C15.3177 7.27153 15.1541 6.63581 14.8366 6.08598C14.511 5.53967 14.0439 5.10248 13.4294 4.77511C12.8918 4.4914 12.2531 4.29146 11.508 4.17319C10.7593 4.05773 9.4496 4 7.57009 4H3V20H7.70869C9.59993 20 10.9639 19.9366 11.7984 19.8148C12.6315 19.6888 13.3311 19.4776 13.8965 19.1876C14.5961 18.8328 15.1307 18.328 15.5032 17.6796C15.8787 17.0291 16.0649 16.2793 16.0649 15.4211C16.0649 14.2349 15.732 13.2809 15.0654 12.5706ZM7.21956 7.5475H8.19488C9.322 7.5475 10.0795 7.67 10.4704 7.91288C10.8561 8.15717 11.0527 8.57958 11.0527 9.18009C11.0527 9.78061 10.8437 10.1657 10.4293 10.4044C10.0099 10.6388 9.245 10.7578 8.12595 10.7578H7.21882V7.5475H7.21956ZM11.0886 16.7228C10.6449 16.9847 9.88006 17.1129 8.80721 17.1129H7.21956V13.6175H8.87541C9.9776 13.6175 10.7395 13.7505 11.1443 14.0166C11.5557 14.2827 11.7588 14.7523 11.7588 15.4268C11.7588 16.0301 11.5366 16.4631 11.0886 16.7235V16.7228Z" fill="currentColor"/>
<path d="M20.8886 15.947C19.7219 15.947 18.7773 16.8538 18.7773 17.9732C18.7773 19.0925 19.7226 20 20.8886 20C22.0546 20 22.9991 19.0925 22.9991 17.9732C22.9991 16.8538 22.0531 15.947 20.8886 15.947Z" fill="currentColor"/>
<path d="M22.7223 4H19.0557V14.6671H22.7223V4Z" fill="currentColor"/>
</g>
<defs>
<clipPath id="clip0_2300_72251">
<rect width="20" height="16" fill="white" transform="translate(3 4)"/>
</clipPath>
</defs>
</svg>
