<svg viewBox="0 0 80 80" fill="none" xmlns="http://www.w3.org/2000/svg">
<g clip-path="url(#clip0_1140_52785)">
<path d="M37.4358 67.8022C52.588 69.4199 66.1828 58.448 67.8005 43.2957C69.4182 28.1435 58.4462 14.5488 43.294 12.9311C28.1417 11.3134 14.547 22.2853 12.9293 37.4375C11.3116 52.5898 22.2835 66.1845 37.4358 67.8022Z" fill="#DADEE2"/>
<mask id="mask0_1140_52785" style="mask-type:luminance" maskUnits="userSpaceOnUse" x="12" y="12" width="56" height="56">
<path d="M37.4358 67.8003C52.588 69.418 66.1828 58.446 67.8005 43.2938C69.4182 28.1415 58.4462 14.5468 43.294 12.9291C28.1417 11.3114 14.547 22.2833 12.9293 37.4356C11.3116 52.5878 22.2835 66.1826 37.4358 67.8003Z" fill="white"/>
</mask>
<g mask="url(#mask0_1140_52785)">
<path d="M51.6968 13.9301L52.1383 3.88973L43.5778 -2.35113L35.2514 2.08684L33.6253 11.695L42.7336 18.0736L51.6968 13.9301Z" fill="#419BE0"/>
<path d="M46.6591 78.5488L47.1006 68.5084L38.5405 62.2638L30.2137 66.7055L28.5843 76.3095L37.6922 82.6918L46.6591 78.5488Z" fill="#419BE0"/>
<path d="M21.2245 29.5446L21.6622 19.5037L13.1017 13.2629L4.77534 17.7009L3.14928 27.309L12.2576 33.6876L21.2245 29.5446Z" fill="#419BE0"/>
<path d="M19.8218 59.9018L20.2633 49.8614L11.7028 43.6206L3.37641 48.0585L1.75075 57.6629L10.8586 64.0453L19.8218 59.9018Z" fill="#419BE0"/>
<path d="M78.4659 33.7429L78.9073 23.7025L70.3468 17.4616L62.0205 21.8996L60.3944 31.5077L69.5027 37.8864L78.4659 33.7429Z" fill="#419BE0"/>
<path d="M73.8978 65.6747L74.3356 55.6339L65.7751 49.393L57.4487 53.831L55.823 63.4354L64.9309 69.8178L73.8978 65.6747Z" fill="#419BE0"/>
</g>
<path d="M49.3731 46.5196L49.823 36.2234L41.0455 29.8234L32.5069 34.3747L30.84 44.2238L40.1799 50.7669L49.3731 46.5196Z" fill="#419BE0"/>
</g>
<defs>
<clipPath id="clip0_1140_52785">
<rect width="80" height="80" fill="white"/>
</clipPath>
</defs>
</svg>
