<svg viewBox="0 0 32 32" fill="none" xmlns="http://www.w3.org/2000/svg">
<path fill-rule="evenodd" clip-rule="evenodd" d="M15.9998 5L28.1242 15.5H23.9998V27H18.75V21.75C18.75 20.2312 17.5188 19 16 19C14.4812 19 13.25 20.2312 13.25 21.75V27H7.99984V20.5V17.25V15.5H3.87549L15.9998 5Z" fill="currentColor"/>
<path d="M28.1242 15.5V16.25C28.4374 16.25 28.7176 16.0554 28.8269 15.762C28.9363 15.4686 28.8519 15.1381 28.6152 14.9331L28.1242 15.5ZM15.9998 5L16.4908 4.43305C16.209 4.18898 15.7907 4.18898 15.5089 4.43305L15.9998 5ZM23.9998 15.5V14.75C23.5856 14.75 23.2498 15.0858 23.2498 15.5H23.9998ZM23.9998 27V27.75C24.4141 27.75 24.7498 27.4142 24.7498 27H23.9998ZM18.75 27H18C18 27.4142 18.3358 27.75 18.75 27.75V27ZM13.25 27V27.75C13.6642 27.75 14 27.4142 14 27H13.25ZM7.99984 27H7.24984C7.24984 27.4142 7.58563 27.75 7.99984 27.75V27ZM7.99984 15.5H8.74984C8.74984 15.0858 8.41406 14.75 7.99984 14.75V15.5ZM3.87549 15.5L3.3845 14.9331C3.14777 15.1381 3.06334 15.4686 3.17274 15.762C3.28214 16.0554 3.56233 16.25 3.87549 16.25V15.5ZM28.6152 14.9331L16.4908 4.43305L15.5089 5.56695L27.6332 16.0669L28.6152 14.9331ZM23.9998 16.25H28.1242V14.75H23.9998V16.25ZM24.7498 27V15.5H23.2498V27H24.7498ZM18.75 27.75H23.9998V26.25H18.75V27.75ZM18 21.75V27H19.5V21.75H18ZM16 19.75C17.1046 19.75 18 20.6454 18 21.75H19.5C19.5 19.817 17.933 18.25 16 18.25V19.75ZM14 21.75C14 20.6454 14.8954 19.75 16 19.75V18.25C14.067 18.25 12.5 19.817 12.5 21.75H14ZM14 27V21.75H12.5V27H14ZM7.99984 27.75H13.25V26.25H7.99984V27.75ZM7.24984 20.5V27H8.74984V20.5H7.24984ZM7.24984 17.25V20.5H8.74984V17.25H7.24984ZM7.24984 15.5V17.25H8.74984V15.5H7.24984ZM3.87549 16.25H7.99984V14.75H3.87549V16.25ZM15.5089 4.43305L3.3845 14.9331L4.36648 16.0669L16.4908 5.56695L15.5089 4.43305Z" fill="currentColor"/>
</svg>
