<svg viewBox="0 0 32 32" fill="none" xmlns="http://www.w3.org/2000/svg">
<path d="M15.9998 5L16.4908 4.43305C16.209 4.18898 15.7907 4.18898 15.5089 4.43305L15.9998 5ZM28.1242 15.5V16.25C28.4374 16.25 28.7176 16.0554 28.8269 15.762C28.9363 15.4686 28.8519 15.1381 28.6152 14.9331L28.1242 15.5ZM3.87549 15.5L3.3845 14.9331C3.14777 15.1381 3.06334 15.4686 3.17274 15.762C3.28214 16.0554 3.56233 16.25 3.87549 16.25V15.5ZM7.99984 15.5H8.74984C8.74984 15.0858 8.41406 14.75 7.99984 14.75V15.5ZM7.99984 27H7.24984C7.24984 27.4142 7.58563 27.75 7.99984 27.75V27ZM23.9998 27V27.75C24.4141 27.75 24.7498 27.4142 24.7498 27H23.9998ZM23.9998 15.5V14.75C23.5856 14.75 23.2498 15.0858 23.2498 15.5H23.9998ZM15.5089 5.56695L27.6332 16.0669L28.6152 14.9331L16.4908 4.43305L15.5089 5.56695ZM4.36648 16.0669L16.4908 5.56695L15.5089 4.43305L3.3845 14.9331L4.36648 16.0669ZM7.99984 14.75H3.87549V16.25H7.99984V14.75ZM8.74984 17.25V15.5H7.24984V17.25H8.74984ZM8.74984 20.5V17.25H7.24984V20.5H8.74984ZM8.74984 27V20.5H7.24984V27H8.74984ZM23.9998 26.25H7.99984V27.75H23.9998V26.25ZM23.2498 15.5V27H24.7498V15.5H23.2498ZM28.1242 14.75H23.9998V16.25H28.1242V14.75Z" fill="currentColor"/>
<path fill-rule="evenodd" clip-rule="evenodd" d="M16 19.25C14.4812 19.25 13.25 20.4812 13.25 22V27H14.75V22C14.75 21.3096 15.3096 20.75 16 20.75C16.6904 20.75 17.25 21.3096 17.25 22V27H18.75V22C18.75 20.4812 17.5188 19.25 16 19.25Z" fill="currentColor"/>
</svg>
