<svg viewBox="0 0 24 24" fill="none" xmlns="http://www.w3.org/2000/svg">
<mask id="path-1-inside-1_46_2125" fill="white">
<path fill-rule="evenodd" clip-rule="evenodd" d="M12 7L18.4818 13.4818C18.8072 13.8072 18.8072 14.3349 18.4818 14.6603C18.1564 14.9858 17.6287 14.9858 17.3033 14.6603L12 9.35702L6.6967 14.6603C6.37126 14.9858 5.84363 14.9858 5.51819 14.6603C5.19275 14.3349 5.19275 13.8072 5.51819 13.4818L12 7Z"/>
</mask>
<path d="M12 7L13.4142 5.58579L12 4.17157L10.5858 5.58579L12 7ZM12 9.35702L13.4142 7.94281L12 6.5286L10.5858 7.94281L12 9.35702ZM19.896 16.0745C21.0025 14.9681 21.0025 13.1741 19.896 12.0676L17.0676 14.896C16.612 14.4404 16.612 13.7017 17.0676 13.2461L19.896 16.0745ZM15.8891 16.0745C16.9956 17.181 18.7895 17.181 19.896 16.0745L17.0676 13.2461C17.5232 12.7905 18.2619 12.7905 18.7175 13.2461L15.8891 16.0745ZM10.5858 10.7712L15.8891 16.0745L18.7175 13.2461L13.4142 7.94281L10.5858 10.7712ZM8.11091 16.0745L13.4142 10.7712L10.5858 7.94281L5.28249 13.2461L8.11091 16.0745ZM4.10398 16.0745C5.21046 17.181 7.00443 17.181 8.11091 16.0745L5.28249 13.2461C5.7381 12.7905 6.47679 12.7905 6.9324 13.2461L4.10398 16.0745ZM4.10398 12.0676C2.99749 13.1741 2.99749 14.9681 4.10398 16.0745L6.9324 13.2461C7.38801 13.7017 7.38801 14.4404 6.9324 14.896L4.10398 12.0676ZM19.896 12.0676L13.4142 5.58579L10.5858 8.41421L17.0676 14.896L19.896 12.0676ZM10.5858 5.58579L4.10398 12.0676L6.9324 14.896L13.4142 8.41421L10.5858 5.58579Z" fill="currentColor" mask="url(#path-1-inside-1_46_2125)"/>
</svg>
